<?xml version="1.0"?>
<svg viewBox="0 0 362.971 420.544" width="362.971" height="420.544" xmlns="http://www.w3.org/2000/svg" xmlns:svg="http://www.w3.org/2000/svg" version="1.2">
 <title>Qt SVG Document</title>
 <desc>Generated with Qt</desc>
 <g class="layer">
  <title>Layer 1</title>
  <g fill="none" font-family="HarmonyOS Sans SC" font-size="14" font-style="normal" font-weight="400" id="svg_2" stroke="#000000" stroke-linecap="square" stroke-linejoin="bevel" stroke-opacity="0" transform="translate(0.8 0) translate(0.8 0) translate(0.8 0) matrix(1 0 0 1 -387 -305) matrix(2.83465 0 0 2.83465 0 0)"/>
  <g fill="none" fill-opacity="0.8" font-family="HarmonyOS Sans SC" font-size="14" font-style="normal" font-weight="400" id="svg_3" opacity="0.8" stroke="#000000" stroke-linecap="square" stroke-linejoin="bevel" stroke-opacity="0" transform="translate(0.8 0) translate(0.8 0) translate(0.8 0) matrix(1 0 0 1 -387 -305) matrix(0.158147 0 0 0.151493 367.211 327.477)">
   <path d="m1934,42c0.33,0 0.66,0 1,0c0.64,4.35 1.06,8.61 1.11,13c0.25,21.75 3.32,43.15 6.19,64.67c0.61,4.62 1.19,9.25 1.75,13.88c0.91,7.33 2.03,14.61 3.26,21.89c0.22,1.28 0.44,2.57 0.66,3.9c2.09,12.27 4.37,24.5 7.03,36.66c0.18,0.85 0.37,1.7 0.56,2.58c2.93,13.12 7.44,25.41 13.44,37.42c6.06,11.16 13.52,20.6 22,30c0.75,0.88 1.5,1.76 2.27,2.67c6.74,7.85 14.35,14.91 22.86,20.81c10.17,6.68 20.86,12.37 31.87,17.52c1.1,0.52 2.2,1.04 3.34,1.58c19.76,8.92 41.13,14.19 62.44,17.9c5.09,0.82 10.2,1.5 15.33,2.14c3.27,0.43 6.53,0.9 9.79,1.38c12.88,1.86 25.7,3.49 38.69,4.32c2.47,0.17 4.94,0.42 7.41,0.68c1.32,0.66 2.64,1.32 4,2c-1.64,0.09 -3.28,0.17 -4.96,0.26c-18.89,1.11 -37.38,3.66 -56.04,6.74c-1.65,0.26 -3.3,0.52 -4.95,0.78c-18.78,3.1 -37.29,7.33 -55.05,14.22c-1.41,0.5 -2.81,1 -4.26,1.51c-15.09,5.5 -29.32,13.02 -42.68,21.93c-10.08,7.27 -19.43,15.63 -28.06,24.56c-0.33,0.66 -0.66,1.32 -1,2c-0.66,0 -1.32,0 -2,0c-0.66,1.32 -1.32,2.64 -2,4c-1.14,1.42 -2.31,2.81 -3.5,4.19c-8.29,10.23 -14.58,22.13 -19.92,34.12c-0.52,1.22 -1.04,2.44 -1.58,3.69c-0.5,1.13 -1,2.27 -1.52,3.44c-9.81,23.96 -13.04,50.55 -16.73,76c-0.42,2.85 -0.85,5.69 -1.27,8.54c-1.19,8 -2.35,16.01 -3.48,24.02c-0.16,1.09 -0.31,2.2 -0.47,3.31c-1.9,13.54 -3.24,27.05 -4.15,40.69c-0.19,2.63 -0.37,5.25 -0.56,7.88c-0.16,2.34 -0.32,4.68 -0.48,7.02c-0.31,3.73 -0.77,7.4 -1.34,11.1c-0.66,-1.32 -1.32,-2.64 -2,-4c-0.98,-4.97 -1.13,-9.88 -1.24,-14.92c-0.7,-29.96 -4.95,-59.66 -9.93,-89.16c-0.57,-3.38 -1.13,-6.76 -1.69,-10.14c-3.96,-24.21 -7.99,-47.79 -18.08,-70.35c-5.57,-11.98 -11.78,-23.09 -20.06,-33.43c-10.97,-12.85 -23.29,-24.37 -37.14,-34.09c-15.39,-10.31 -31.79,-18.11 -49.29,-24.21c-6.14,-2.06 -12.34,-3.93 -18.57,-5.7c-0.85,-0.24 -1.71,-0.49 -2.59,-0.74c-26.29,-7.34 -53.91,-9.61 -81.01,-11.95c-6.82,-0.62 -13.61,-1.44 -20.4,-2.31c0,-0.33 0,-0.66 0,-1c1.57,0.02 3.16,0.04 4.77,0.06c33.13,-0.1 67.64,-5.76 99.62,-14.34c0.86,-0.24 1.73,-0.48 2.61,-0.72c0.9,-0.24 1.79,-0.49 2.71,-0.74c17.23,-4.78 33.43,-10.96 49.29,-19.26c1.1,-0.54 2.2,-1.08 3.33,-1.64c9.33,-4.73 17.78,-10.51 25.67,-17.36c11.22,-10.2 22.61,-20.78 31,-33.5c8.08,-12.85 14.5,-26.55 19.22,-40.96c4.94,-16.12 7.31,-32.91 9.78,-49.54c0.35,-2.34 0.71,-4.68 1.06,-7.02c4.23,-28.06 8.31,-56.13 10.29,-84.45c0.51,-7.23 1.1,-14.44 2.65,-21.53c0.33,-0.66 0.66,-1.32 1,-2" fill="#7b2fe0" fill-rule="evenodd" id="svg_4" stroke="#000000"/>
  </g>
  <g fill="none" font-family="HarmonyOS Sans SC" font-size="14" font-style="normal" font-weight="400" id="svg_5" stroke="#000000" stroke-linecap="square" stroke-linejoin="bevel" stroke-opacity="0" transform="translate(0.8 0) translate(0.8 0) translate(0.8 0) matrix(1 0 0 1 -387 -305) matrix(2.83465 0 0 2.83465 0 0)"/>
  <g fill="none" fill-opacity="0.8" font-family="HarmonyOS Sans SC" font-size="14" font-style="normal" font-weight="400" id="svg_6" opacity="0.8" stroke="#000000" stroke-linecap="square" stroke-linejoin="bevel" stroke-opacity="0" transform="translate(0.8 0) translate(0.8 0) translate(0.8 0) matrix(1 0 0 1 -387 -305) matrix(0.158147 0 0 0.151493 367.211 327.477)">
   <path d="m932,138c4.69,-0.37 9.31,-0.39 14,0c1.22,0.58 2.43,1.15 3.69,1.75c1.54,1.5 3.31,3.58 5.31,6.25c0.67,2 1.08,3.98 1.24,5.93c0.07,3.39 0.07,6.69 -0.24,10.07c-0.6,1.2 -1.2,2.39 -1.81,3.63c-1.69,1.83 -3.43,3.61 -5.19,5.37c-2,0.67 -4.03,1.1 -6.07,1.31c-3.73,0.13 -7.23,0.13 -10.93,-0.31c-1.75,-0.8 -3.34,-1.72 -4.75,-2.75c-1.07,-1.07 -2.15,-2.15 -3.25,-3.25c-0.66,-1.32 -1.32,-2.64 -2,-4c-0.2,-2.04 -0.3,-4.18 -0.31,-6.44c-0.02,-1.11 -0.04,-2.23 -0.05,-3.37c0.12,-1.05 0.24,-2.1 0.36,-3.19c0.91,-1.83 1.91,-3.49 3,-5c1.71,-1.83 3.38,-3.5 5,-5c0.66,-0.33 1.32,-0.66 2,-1" fill="#7b2fe0" fill-rule="evenodd" id="svg_7" stroke="#000000"/>
  </g>
  <g fill="none" font-family="HarmonyOS Sans SC" font-size="14" font-style="normal" font-weight="400" id="svg_8" stroke="#000000" stroke-linecap="square" stroke-linejoin="bevel" stroke-opacity="0" transform="translate(0.8 0) translate(0.8 0) translate(0.8 0) matrix(1 0 0 1 -387 -305) matrix(2.83465 0 0 2.83465 0 0)"/>
  <g fill="none" font-family="HarmonyOS Sans SC" font-size="14" font-style="normal" font-weight="400" id="svg_9" stroke="#000000" stroke-linecap="square" stroke-linejoin="bevel" stroke-opacity="0" transform="translate(0.8 0) translate(0.8 0) translate(0.8 0) matrix(1 0 0 1 -387 -305) matrix(0.158147 0 0 0.151493 367.211 327.477)">
   <path d="m1354.25,181.69c1.57,0.1 3.15,0.21 4.75,0.31c2.5,1.08 4.83,2.42 7,4c1.92,2.04 3.58,4.04 5,6c0.33,0.99 0.66,1.99 1,3c0.18,3.44 0.29,6.59 0,10c-0.37,1.09 -0.74,2.19 -1.12,3.31c-1.25,1.79 -2.84,3.61 -4.75,5.44c-1.76,1.26 -3.54,2.5 -5.38,3.63c-1.83,0.41 -4.4,0.58 -7.69,0.5c-1.75,-0.23 -3.44,-0.52 -5.06,-0.88c-2.25,-1.17 -4.25,-2.5 -6,-4c-0.76,-0.7 -1.53,-1.4 -2.31,-2.12c-0.56,-0.95 -1.12,-1.91 -1.69,-2.88c-0.72,-3.63 -1.12,-6.37 -1,-10c0.67,-3.17 1.67,-6.17 3,-9c2.33,-2.33 4.67,-4.33 7,-6c2,-0.67 4.42,-1.1 7.25,-1.31" fill="#a3a5ab" fill-rule="evenodd" id="svg_10" stroke="#000000"/>
  </g>
  <g fill="none" font-family="HarmonyOS Sans SC" font-size="14" font-style="normal" font-weight="400" id="svg_11" stroke="#000000" stroke-linecap="square" stroke-linejoin="bevel" stroke-opacity="0" transform="translate(0.8 0) translate(0.8 0) translate(0.8 0) matrix(1 0 0 1 -387 -305) matrix(2.83465 0 0 2.83465 0 0)"/>
  <g fill="none" font-family="HarmonyOS Sans SC" font-size="14" font-style="normal" font-weight="400" id="svg_12" stroke="#000000" stroke-linecap="square" stroke-linejoin="bevel" stroke-opacity="0" transform="translate(0.8 0) translate(0.8 0) translate(0.8 0) matrix(1 0 0 1 -387 -305) matrix(0.158147 0 0 0.151493 367.211 327.477)">
   <path d="m520.38,319.56c1.52,0.15 3.06,0.29 4.62,0.44c2.88,1.08 5.54,2.42 8,4c1.63,2.04 2.96,4.04 4,6c0.33,0.99 0.66,1.99 1,3c0.17,2.83 0.17,5.83 0,9c-0.75,2.5 -1.75,4.83 -3,7c-1.92,1.92 -3.92,3.58 -6,5c-0.76,0.27 -1.53,0.54 -2.31,0.81c-0.89,0.06 -1.78,0.13 -2.69,0.19c-1.44,0.1 -2.9,0.21 -4.37,0.31c-1.53,-0.1 -3.07,-0.2 -4.63,-0.31c-2.54,-1.08 -4.87,-2.42 -7,-4c-1.58,-2 -2.92,-4 -4,-6c-0.67,-2.67 -1.06,-5.12 -1.19,-7.37c0.13,-2.42 0.42,-4.67 0.88,-6.75c0.43,-0.95 0.86,-1.9 1.31,-2.88c1.5,-1.79 3.17,-3.46 5,-5c3.64,-2.4 5.99,-3 10.38,-3.44" fill="#a3a5ab" fill-rule="evenodd" id="svg_13" stroke="#000000"/>
  </g>
  <g fill="none" font-family="HarmonyOS Sans SC" font-size="14" font-style="normal" font-weight="400" id="svg_14" stroke="#000000" stroke-linecap="square" stroke-linejoin="bevel" stroke-opacity="0" transform="translate(0.8 0) translate(0.8 0) translate(0.8 0) matrix(1 0 0 1 -387 -305) matrix(2.83465 0 0 2.83465 0 0)"/>
  <g fill="none" fill-opacity="0.8" font-family="HarmonyOS Sans SC" font-size="14" font-style="normal" font-weight="400" id="svg_15" opacity="0.8" stroke="#000000" stroke-linecap="square" stroke-linejoin="bevel" stroke-opacity="0" transform="translate(0.8 0) translate(0.8 0) translate(0.8 0) matrix(1 0 0 1 -387 -305) matrix(0.158147 0 0 0.151493 367.211 327.477)">
   <path d="m1155,331c0.66,0 1.32,0 2,0c0.15,1.62 0.29,3.24 0.45,4.91c0.96,9.85 2.77,19.53 5.43,29.03c1,2.37 2.03,4.73 3.12,7.06c0.46,1.01 0.92,2.01 1.39,3.05c1.91,3.98 3.96,7.41 6.61,10.95c0,0.66 0,1.32 0,2c1.32,0.66 2.64,1.32 4,2c1.64,1.26 3.26,2.53 4.88,3.81c3.12,2.3 6.03,4.15 9.57,5.76c12.9,4.75 25.95,6.02 39.55,7.43c-0.99,0.66 -1.98,1.32 -3,2c-1.53,0.33 -3.19,0.62 -4.98,0.86c-0.99,0.14 -1.98,0.28 -3.01,0.43c-1.05,0.15 -2.11,0.3 -3.2,0.46c-8.89,1.38 -17.1,3.22 -25.46,6.69c-4.74,2.2 -9.2,4.36 -13.35,7.56c-3.1,2.74 -5.62,5.61 -8,9c-4.33,7.42 -7.64,15.12 -10.27,23.28c-1.93,7.2 -2.05,14.41 -2.35,21.82c-0.13,1.29 -0.25,2.57 -0.38,3.9c-0.66,1.32 -1.32,2.64 -2,4c-0.66,-0.99 -1.32,-1.98 -2,-3c-0.28,-1.54 -0.51,-3.21 -0.68,-5.02c-0.1,-0.99 -0.2,-1.99 -0.31,-3.02c-0.1,-1.06 -0.21,-2.12 -0.32,-3.21c-0.97,-8.58 -2.32,-16.51 -5.39,-24.63c-0.43,-1.03 -0.86,-2.06 -1.3,-3.12c-0.37,-0.92 -0.74,-1.83 -1.12,-2.78c-1.58,-3.53 -3.45,-6.62 -5.7,-9.77c-2.25,-2.74 -4.53,-5.11 -7.18,-7.45c-5.36,-3.75 -10.94,-6.73 -16.98,-9.24c-8.18,-2.79 -16.73,-4.04 -25.24,-5.37c-2.6,-0.41 -5.19,-0.9 -7.78,-1.39c-0.99,-0.66 -1.98,-1.32 -3,-2c1.63,-0.16 3.26,-0.32 4.94,-0.48c10.99,-1.14 21.56,-2.28 31.97,-6.2c6.06,-2.59 11.61,-5.4 17.22,-8.88c2.25,-1.8 4.06,-3.66 5.93,-5.86c3.13,-4.29 5.53,-8.65 7.67,-13.52c4,-10.9 5.55,-21.65 6.73,-33.15c0.36,-3.27 0.87,-5.91 1.54,-7.91" fill="#7b2fe0" fill-rule="evenodd" id="svg_16" stroke="#000000"/>
  </g>
  <g fill="none" font-family="HarmonyOS Sans SC" font-size="14" font-style="normal" font-weight="400" id="svg_17" stroke="#000000" stroke-linecap="square" stroke-linejoin="bevel" stroke-opacity="0" transform="translate(0.8 0) translate(0.8 0) translate(0.8 0) matrix(1 0 0 1 -387 -305) matrix(2.83465 0 0 2.83465 0 0)"/>
  <path d="m227.19,86.79c2.07,0.3 4.05,0.8 5.98,1.59c3.2,1.36 6.18,3.16 8.91,5.26c0.55,0.43 1.08,0.86 1.62,1.3c0.23,0.18 0.47,0.37 0.7,0.54c1.33,1.01 2.52,2.15 3.72,3.3c0.36,0.34 0.72,0.69 1.08,1.03c1.08,1.04 2.14,2.07 3.08,3.23c0.33,0.4 0.69,0.77 1.05,1.14c0.9,0.94 1.68,1.96 2.47,2.98c0.25,0.33 0.51,0.66 0.77,0.98c0.09,0.11 0.17,0.22 0.26,0.33c0.08,0.1 0.16,0.21 0.25,0.32c0.52,0.66 1.03,1.33 1.5,2.03c0.14,0.19 0.27,0.38 0.41,0.58c4.25,6.06 8.03,12.37 10.54,19.29c1.13,3.17 2.19,6.36 2.81,9.67c0.02,0.12 0.05,0.25 0.07,0.37c0.41,2.2 0.45,4.4 0.46,6.62c0,0.14 0,0.28 0,0.42c0.02,2.22 -0.14,4.41 -0.66,6.58c-0.12,0.39 -0.25,0.77 -0.39,1.15c-0.05,0.13 -0.09,0.26 -0.15,0.4c-0.46,1.24 -1.05,2.37 -1.82,3.46c-0.27,0.34 -0.55,0.67 -0.84,0.99c-0.1,0.11 -0.21,0.23 -0.31,0.34c-0.65,0.66 -1.32,1.18 -2.12,1.67c-0.75,0.42 -1.49,0.78 -2.32,1.04c-1.4,0.36 -2.79,0.6 -4.25,0.63c-1.63,-0.04 -3.22,-0.28 -4.79,-0.68c-3.18,-0.92 -6.16,-2.27 -8.99,-3.92c-2.31,-1.43 -4.59,-3.12 -6.5,-5.02c-0.21,-0.2 -0.46,-0.4 -0.77,-0.58c0,-0.1 0,-0.2 0,-0.3c-0.21,-0.1 -0.42,-0.2 -0.63,-0.3c-0.42,-0.38 -0.83,-0.76 -1.24,-1.15c-0.11,-0.1 -0.22,-0.21 -0.33,-0.32c-0.63,-0.61 -1.24,-1.24 -1.83,-1.9c-0.32,-0.35 -0.66,-0.66 -1.01,-0.98c-0.75,-0.71 -1.39,-1.48 -2.02,-2.29c-0.35,-0.45 -0.71,-0.87 -1.09,-1.3c-4.65,-5.43 -8.43,-11.73 -11.5,-18.09c-1.38,-2.92 -2.45,-5.92 -3.46,-8.97c-0.06,-0.17 -0.11,-0.33 -0.17,-0.51c-1.47,-4.34 -2.25,-8.88 -2.52,-13.43c-0.14,-2.68 0.06,-5.4 0.6,-8.04c0.34,-1.42 0.75,-2.75 1.44,-4.05c0.57,-0.96 1.17,-1.81 1.97,-2.6c0.69,-0.62 1.39,-1.14 2.21,-1.6c0.98,-0.5 1.95,-0.83 3.03,-1.09c1.58,-0.3 3.15,-0.28 4.75,-0.11m-0.28,11.13c-0.51,0.22 -0.94,0.45 -1.39,0.76c-0.35,0.35 -0.62,0.7 -0.89,1.12c-0.42,0.76 -0.74,1.48 -0.96,2.32c-0.39,1.94 -0.3,4.01 -0.16,5.97c0.28,2.81 0.94,5.49 1.85,8.17c0.08,0.24 0.16,0.48 0.24,0.72c1.05,3.05 2.48,5.98 4.03,8.82c0.12,0.23 0.25,0.46 0.37,0.7c1.19,2.2 2.48,4.35 3.9,6.42c0.08,0.11 0.15,0.23 0.23,0.34c1.23,1.8 2.51,3.56 3.88,5.26c0.09,0.12 0.19,0.24 0.29,0.36c2.63,3.3 5.54,6.63 8.97,9.2c0.34,0.25 0.68,0.49 1.03,0.74c0.3,0.24 0.6,0.48 0.9,0.72c1.5,1.18 3.19,2.12 4.95,2.92c0.98,0.35 1.96,0.62 3,0.76c0.69,0.05 1.36,0.05 2.06,0c0.47,-0.09 0.89,-0.22 1.33,-0.4c0.42,-0.21 0.78,-0.44 1.16,-0.72c0.4,-0.37 0.69,-0.73 0.99,-1.18c0.48,-0.87 0.84,-1.72 1.09,-2.68c0.36,-1.66 0.42,-3.33 0.34,-5.02c-0.24,-3.26 -0.97,-6.4 -2.07,-9.49c-2.07,-5.62 -4.82,-10.89 -8.32,-15.81c-2.5,-3.46 -5.17,-6.89 -8.27,-9.88c-0.1,-0.1 -0.2,-0.2 -0.31,-0.3c-0.22,-0.21 -0.43,-0.42 -0.65,-0.62c-0.32,-0.31 -0.65,-0.62 -0.97,-0.94c-1.24,-1.19 -2.5,-2.27 -3.93,-3.26c-0.35,-0.26 -0.7,-0.52 -1.05,-0.79c-1.78,-1.31 -3.71,-2.41 -5.75,-3.3c-1.24,-0.47 -2.57,-0.96 -3.89,-1.11c-0.71,-0.03 -1.32,0 -2,0.2" fill="#3099f3" fill-opacity="0.9" fill-rule="evenodd" id="svg_19" stroke="#000000" stroke-opacity="0"/>
  <g fill="none" font-family="HarmonyOS Sans SC" font-size="14" font-style="normal" font-weight="400" id="svg_20" stroke="#000000" stroke-linecap="square" stroke-linejoin="bevel" stroke-opacity="0" transform="translate(0.8 0) translate(0.8 0) translate(0.8 0) matrix(1 0 0 1 -387 -305) matrix(2.83465 0 0 2.83465 0 0)"/>
  <g fill="none" fill-opacity="0.9" font-family="HarmonyOS Sans SC" font-size="14" font-style="normal" font-weight="400" id="svg_21" stroke="#000000" stroke-linecap="square" stroke-linejoin="bevel" stroke-opacity="0" transform="translate(0.8 0) translate(0.8 0) translate(0.8 0) matrix(1 0 0 1 -387 -305) matrix(0.158147 0 0 0.151493 367.211 327.477)">
   <path d="m1419,492c0.66,0.33 1.33,0.66 2,1c-0.2,0.99 -0.41,1.98 -0.62,3c-0.27,1.32 -0.54,2.64 -0.82,4c-0.26,1.3 -0.53,2.6 -0.81,3.94c-1.53,8.24 -1.93,16.22 -1.99,24.58c-0.01,1.21 -0.01,2.44 -0.02,3.67c-0.02,2.57 -0.03,5.14 -0.04,7.71c-0.01,2.57 -0.03,5.15 -0.06,7.72c-0.21,18.18 1.11,35.49 4.36,53.38c0.26,1.46 0.52,2.94 0.78,4.43c0.63,3.41 1.31,6.8 2.03,10.2c0.26,1.2 0.51,2.41 0.77,3.63c7.1,32.72 18.21,64.44 32.42,94.74c0.48,1.04 0.97,2.09 1.47,3.15c9.26,19.8 19.04,39.24 30.53,57.85c0.92,1.52 1.84,3.05 2.76,4.57c4.83,8 9.76,15.86 15.24,23.43c1.02,1.48 2.04,2.96 3.06,4.44c8.36,11.91 16.89,23.65 26.43,34.65c2.39,2.77 4.67,5.61 6.95,8.47c5.07,6.26 10.78,11.84 16.56,17.44c0,0.66 0,1.32 0,2c1.32,0.66 2.64,1.32 4,2c0.99,0.99 1.98,1.98 3,3c0,0.66 0,1.32 0,2c1.32,0.66 2.64,1.32 4,2c1.36,1.22 2.67,2.5 3.94,3.82c0.74,0.76 1.49,1.52 2.25,2.3c0.78,0.8 1.57,1.61 2.37,2.44c5.74,5.83 11.45,11.43 17.91,16.46c2.72,2.13 5.3,4.39 7.91,6.67c12.87,10.73 27.48,20.14 42.62,27.31c13.83,6.28 28.19,12.35 43.13,15.38c1.27,0.2 2.57,0.41 3.87,0.62c-0.33,0.99 -0.66,1.98 -1,3c-1.49,0.56 -2.99,1.12 -4.51,1.69c-9.95,3.72 -19.89,7.45 -29.8,11.25c-32.13,12.27 -51.36,18.95 -57.69,20.06c-9.47,0.67 -19.22,0.71 -28.61,-0.68c-13.31,-3.17 -25.87,-8.72 -38.03,-14.93c-19.81,-10.84 -38.34,-23.55 -55.36,-38.39c-1.05,-0.86 -2.1,-1.73 -3.18,-2.62c-7.58,-6.29 -14.65,-13 -21.63,-19.94c-0.87,-0.86 -1.75,-1.73 -2.64,-2.61c-5.2,-5.22 -9.98,-10.63 -14.58,-16.38c-2.31,-2.88 -4.73,-5.66 -7.16,-8.45c-10.15,-11.96 -19.35,-24.8 -27.81,-38c-0.88,-1.34 -1.75,-2.69 -2.66,-4.07c-18.34,-28.37 -34.05,-58.46 -46.34,-89.93c-0.35,-0.9 -0.71,-1.8 -1.07,-2.73c-12.5,-32.13 -20.59,-65.88 -24.59,-100.1c-0.76,-7.06 -1.19,-14.08 -1.34,-21.17c-0.02,-0.84 -0.04,-1.7 -0.06,-2.56c-0.35,-15.77 0.05,-31.45 3.63,-46.89c1.99,-7.84 4.52,-15.29 8.37,-22.41c2.88,-4.38 6.16,-7.93 9.99,-11.5c4.36,-3.75 8.84,-7.33 13.41,-10.83c3.7,-2.84 7.34,-5.75 10.97,-8.68c12.31,-9.86 24.88,-19.35 37.62,-28.64c2.81,-2.02 5.5,-4.19 8.07,-6.49" fill="#3099f3" fill-rule="evenodd" id="svg_22" stroke="#000000"/>
  </g>
  <g fill="none" font-family="HarmonyOS Sans SC" font-size="14" font-style="normal" font-weight="400" id="svg_23" stroke="#000000" stroke-linecap="square" stroke-linejoin="bevel" stroke-opacity="0" transform="translate(0.8 0) translate(0.8 0) translate(0.8 0) matrix(1 0 0 1 -387 -305) matrix(2.83465 0 0 2.83465 0 0)"/>
  <g fill="none" font-family="HarmonyOS Sans SC" font-size="14" font-style="normal" font-weight="400" id="svg_24" stroke="#000000" stroke-linecap="square" stroke-linejoin="bevel" stroke-opacity="0" transform="translate(0.8 0) translate(0.8 0) translate(0.8 0) matrix(1 0 0 1 -387 -305) matrix(0.158147 0 0 0.151493 367.211 327.477)">
   <path d="m796.63,563.56c1.77,0.02 3.57,0.17 5.37,0.44c2.68,1.19 4.82,2.54 7.15,4.31c1.23,1.13 2.54,2.57 3.91,4.32c0.91,3.26 1.24,6 1.38,9.37c-0.06,2.1 -0.21,4.1 -0.44,6c-0.56,1.16 -1.11,2.31 -1.69,3.5c-2.3,2.49 -4.52,4.57 -7.31,6.5c-2,0.67 -4.58,1.1 -7.75,1.31c-1.79,-0.02 -3.54,-0.13 -5.25,-0.31c-1.26,-0.52 -2.52,-1.03 -3.81,-1.56c-2.13,-1.63 -4.17,-3.42 -6.13,-5.38c-0.68,-1.34 -1.36,-2.68 -2.06,-4.06c-0.43,-3.34 -0.5,-6.55 -0.47,-9.91c0.16,-1.02 0.31,-2.05 0.47,-3.09c0.9,-1.82 1.9,-3.48 3,-5c2,-1.83 4,-3.5 6,-5c2,-0.67 4.54,-1.15 7.63,-1.44" fill="#a3a5ab" fill-rule="evenodd" id="svg_25" stroke="#000000"/>
  </g>
  <g fill="none" font-family="HarmonyOS Sans SC" font-size="14" font-style="normal" font-weight="400" id="svg_26" stroke="#000000" stroke-linecap="square" stroke-linejoin="bevel" stroke-opacity="0" transform="translate(0.8 0) translate(0.8 0) translate(0.8 0) matrix(1 0 0 1 -387 -305) matrix(2.83465 0 0 2.83465 0 0)"/>
  <g fill="none" font-family="HarmonyOS Sans SC" font-size="14" font-style="normal" font-weight="400" id="svg_27" stroke="#000000" stroke-linecap="square" stroke-linejoin="bevel" stroke-opacity="0" transform="translate(0.8 0) translate(0.8 0) translate(0.8 0) matrix(1 0 0 1 -387 -305) matrix(0.158147 0 0 0.151493 367.211 327.477)">
   <path d="m2164,579c3.5,-0.24 6.54,-0.36 10,0c2.92,1.13 5.58,2.46 8,4c1.63,1.67 2.96,3.33 4,5c0.98,3.91 1.27,7.44 1.21,11.47c-0.14,1.69 -0.61,3.82 -1.4,6.41c-0.6,1.03 -1.19,2.06 -1.81,3.12c-1.58,1.54 -3.25,2.88 -5,4c-1.54,0.83 -3.21,1.5 -5,2c-2.46,0.29 -5.12,0.29 -8,0c-2.79,-0.9 -5.22,-1.98 -7.79,-3.4c-0.73,-0.52 -1.46,-1.05 -2.21,-1.6c-0.87,-1.22 -1.73,-2.43 -2.62,-3.69c-1.1,-3.43 -1.7,-5.86 -1.88,-9.37c0.17,-1.63 0.33,-3.28 0.5,-4.94c1.08,-2.54 2.42,-4.87 4,-7c2.08,-1.92 4.08,-3.58 6,-5c0.66,-0.33 1.32,-0.66 2,-1" fill="#a3a5ab" fill-rule="evenodd" id="svg_28" stroke="#000000"/>
  </g>
  <g fill="none" font-family="HarmonyOS Sans SC" font-size="14" font-style="normal" font-weight="400" id="svg_29" stroke="#000000" stroke-linecap="square" stroke-linejoin="bevel" stroke-opacity="0" transform="translate(0.8 0) translate(0.8 0) translate(0.8 0) matrix(1 0 0 1 -387 -305) matrix(2.83465 0 0 2.83465 0 0)"/>
  <g fill="none" fill-opacity="0.9" font-family="HarmonyOS Sans SC" font-size="14" font-style="normal" font-weight="400" id="svg_30" stroke="#000000" stroke-linecap="square" stroke-linejoin="bevel" stroke-opacity="0" transform="translate(0.8 0) translate(0.8 0) translate(0.8 0) matrix(1 0 0 1 -387 -305) matrix(0.158147 0 0 0.151493 367.211 327.477)">
   <path d="m1282,634c0.66,0 1.32,0 2,0c0.01,0.78 0.02,1.55 0.03,2.35c0.5,33.72 4.94,66.21 13.88,98.75c1.9,6.68 3.96,13.3 6.09,19.9c0.34,1.07 0.69,2.14 1.04,3.24c5.63,17.37 12.51,34.1 19.96,50.76c0.37,0.83 0.74,1.67 1.12,2.53c14.23,31.9 33.29,62.73 55,90.09c1.44,1.82 2.86,3.66 4.26,5.51c6.03,7.86 12.43,15.14 19.26,22.3c2.32,2.46 4.55,4.92 6.75,7.48c3.83,4.41 7.91,8.54 12.05,12.65c0.71,0.72 1.42,1.43 2.16,2.17c4.63,4.63 9.43,9 14.4,13.27c1.04,0.92 2.08,1.84 3.14,2.78c13.25,11.59 27.2,23.04 42.86,31.22c0,0.99 0,1.98 0,3c-0.65,0.21 -1.29,0.42 -1.96,0.63c-6.34,2.07 -12.6,4.3 -18.85,6.62c-8.63,3.2 -17.29,6.27 -25.97,9.29c-4.32,1.5 -8.64,3.01 -12.96,4.52c-0.91,0.32 -1.82,0.63 -2.76,0.96c-10.8,3.78 -21.59,7.6 -32.37,11.42c-1.01,0.35 -2.02,0.71 -3.06,1.08c-15.14,5.36 -30.26,10.76 -45.38,16.17c-11.88,4.25 -23.78,8.46 -35.69,12.62c-33.11,11.6 -66.07,23.62 -99.05,35.56c-13.31,4.82 -26.62,9.6 -39.95,14.38c-10.51,3.77 -21.02,7.58 -31.5,11.44c-13.65,5.02 -27.36,9.89 -41.07,14.74c-7.65,2.71 -15.29,5.43 -22.94,8.16c-1.82,0.65 -3.65,1.3 -5.47,1.95c-9.86,3.51 -19.7,7.07 -29.5,10.76c-19.86,7.5 -34.47,11.75 -43.83,12.76c-6.37,0.2 -12.41,-0.66 -18.63,-2c-8.65,-2.26 -16.78,-5.13 -24.58,-9.54c-3.86,-2.28 -7.64,-4.68 -11.39,-7.15c-1.88,-1.23 -3.77,-2.44 -5.67,-3.64c-11.1,-7.39 -20.46,-16.9 -29.42,-26.73c-2.93,-3.54 -5.53,-7.13 -8,-11c-0.95,-1.41 -1.9,-2.82 -2.85,-4.23c-7.76,-11.62 -14.75,-23.87 -20.15,-36.77c-0.56,-1.29 -1.12,-2.59 -1.7,-3.92c-6.64,-16.01 -10.55,-32.99 -13.3,-50.08c-1.78,-14.87 -1.88,-30.33 0.25,-45.15c1.48,-7.6 3.82,-14.76 7.13,-21.76c1.86,-3.37 3.83,-6.26 6.5,-9.04c3.8,-3.42 7.9,-6.45 12.02,-9.48c2.24,-1.68 4.42,-3.43 6.6,-5.19c5.05,-4.07 10.22,-7.95 15.41,-11.82c4.16,-3.11 8.3,-6.25 12.4,-9.43c5.23,-4.05 10.54,-7.97 15.88,-11.88c7.29,-5.34 14.47,-10.83 21.58,-16.41c4.86,-3.8 9.79,-7.47 14.8,-11.06c2.48,-1.82 4.86,-3.72 7.24,-5.65c3.96,-3.21 8.03,-6.19 12.19,-9.13c3.99,-2.82 7.91,-5.66 11.69,-8.75c4.79,-3.91 9.76,-7.54 14.75,-11.19c5.14,-3.76 10.24,-7.52 15.12,-11.62c5.24,-4.38 10.77,-8.32 16.32,-12.28c6.41,-4.6 12.64,-9.4 18.85,-14.27c4.81,-3.77 9.68,-7.41 14.64,-10.97c4.19,-3.06 8.27,-6.24 12.38,-9.42c3.06,-2.36 6.15,-4.68 9.25,-7c4.11,-3.07 8.19,-6.18 12.25,-9.31c4.89,-3.77 9.81,-7.49 14.75,-11.19c4.86,-3.63 9.7,-7.29 14.5,-11c6.7,-5.17 13.47,-10.24 20.24,-15.31c5.04,-3.77 10.08,-7.55 15.11,-11.33c3.5,-2.62 6.99,-5.24 10.49,-7.86c10.07,-7.52 20.04,-15.17 30,-22.84c7.81,-5.99 15.67,-11.9 23.62,-17.7c4.84,-3.53 9.63,-7.12 14.42,-10.71c0.82,-0.61 1.64,-1.23 2.48,-1.86c4.78,-3.59 9.52,-7.23 14.22,-10.92c2.22,-1.7 4.44,-3.19 6.92,-4.47" fill="#3099f3" fill-rule="evenodd" id="svg_31" stroke="#000000"/>
  </g>
  <g fill="none" font-family="HarmonyOS Sans SC" font-size="14" font-style="normal" font-weight="400" id="svg_32" stroke="#000000" stroke-linecap="square" stroke-linejoin="bevel" stroke-opacity="0" transform="translate(0.8 0) translate(0.8 0) translate(0.8 0) matrix(1 0 0 1 -387 -305) matrix(2.83465 0 0 2.83465 0 0)"/>
  <g fill="none" fill-opacity="0.8" font-family="HarmonyOS Sans SC" font-size="14" font-style="normal" font-weight="400" id="svg_33" opacity="0.8" stroke="#000000" stroke-linecap="square" stroke-linejoin="bevel" stroke-opacity="0" transform="translate(0.8 0) translate(0.8 0) translate(0.8 0) matrix(1 0 0 1 -387 -305) matrix(0.158147 0 0 0.151493 367.211 327.477)">
   <path d="m324.5,646.44c1.48,0.51 2.98,1.03 4.5,1.56c1.37,0.97 2.68,2.03 3.94,3.19c2.04,2.54 3.56,4.91 4.56,7.12c0.42,3.06 0.58,5.69 0.44,8.75c-0.23,1.72 -0.54,3.36 -0.94,4.94c-0.68,1.11 -1.36,2.23 -2.06,3.38c-1.96,1.75 -4.19,3.43 -6.69,5.06c-1.4,0.51 -2.8,1.03 -4.25,1.56c-3.12,-0.04 -6.12,-0.37 -9,-1c-1.83,-0.83 -3.5,-1.83 -5,-3c-1.83,-1.71 -3.5,-3.37 -5,-5c-0.33,-0.66 -0.66,-1.32 -1,-2c-0.15,-2.1 -0.22,-4.21 -0.25,-6.31c-0.03,-1.13 -0.05,-2.28 -0.08,-3.43c0.11,-1.08 0.22,-2.15 0.33,-3.26c0.9,-1.83 1.9,-3.5 3,-5c1.83,-1.79 3.83,-3.46 6,-5c4.28,-1.86 6.83,-2.02 11.5,-1.56" fill="#7b2fe0" fill-rule="evenodd" id="svg_34" stroke="#000000"/>
  </g>
  <g fill="none" font-family="HarmonyOS Sans SC" font-size="14" font-style="normal" font-weight="400" id="svg_35" stroke="#000000" stroke-linecap="square" stroke-linejoin="bevel" stroke-opacity="0" transform="translate(0.8 0) translate(0.8 0) translate(0.8 0) matrix(1 0 0 1 -387 -305) matrix(2.83465 0 0 2.83465 0 0)"/>
  <g fill="none" fill-opacity="0.8" font-family="HarmonyOS Sans SC" font-size="14" font-style="normal" font-weight="400" id="svg_36" stroke="#000000" stroke-linecap="square" stroke-linejoin="bevel" stroke-opacity="0" transform="translate(0.8 0) translate(0.8 0) translate(0.8 0) matrix(1 0 0 1 -387 -305) matrix(0.158147 0 0 0.151493 367.211 327.477)">
   <path d="m2173,741c20.23,5.45 40.48,12.92 58.81,23.13c2.08,1.26 4.15,2.55 6.19,3.87c1.09,0.7 2.19,1.4 3.3,2.1c11.29,7.5 20.96,16.6 29.98,26.68c8.09,9.56 14.99,19.54 20.65,30.71c5.73,12.5 10.04,25.54 12.35,39.12c2.35,16.07 2.32,32.58 0.5,48.69c-3.21,24.86 -10.36,49.32 -19.79,72.49c-10.72,25.53 -24.74,49.17 -39.99,72.21c-0.85,1.31 -1.71,2.61 -2.59,3.96c-4.5,6.84 -9.16,13.49 -14.12,20c-2.54,3.37 -4.98,6.79 -7.41,10.23c-2.91,4.09 -5.85,8.12 -8.94,12.06c-1.88,2.22 -3.19,4.14 -3.94,5.75c-0.66,0 -1.32,0 -2,0c-0.66,1.32 -1.32,2.64 -2,4c-5.6,7.89 -11.81,15.11 -18.41,22.17c-2.32,2.54 -4.47,5.12 -6.59,7.83c-8.06,10.23 -17.27,19.38 -26.54,28.51c-0.74,0.72 -1.47,1.45 -2.23,2.19c-0.64,0.64 -1.29,1.27 -1.96,1.93c-1.87,1.96 -3.67,3.99 -5.45,6.04c-4.2,4.84 -8.71,9.34 -13.25,13.86c-0.88,0.88 -1.76,1.75 -2.66,2.66c-2.78,2.77 -5.57,5.54 -8.35,8.31c-1.89,1.89 -3.79,3.78 -5.68,5.67c-4.63,4.61 -9.25,9.22 -13.88,13.83c-0.66,0 -1.32,0 -2,0c-0.33,0.99 -0.66,1.98 -1,3c-1.9,1.7 -3.81,3.4 -5.75,5.04c-2.19,1.91 -4.22,3.89 -6.25,5.96c-3.06,3.1 -6.24,5.99 -9.54,8.83c-3.34,2.95 -6.59,6 -9.83,9.05c-5.06,4.73 -10.14,9.43 -15.31,14.05c-1.6,1.42 -3.18,2.86 -4.77,4.3c-5.14,4.68 -10.41,9.14 -15.82,13.51c-2.69,2.23 -5.28,4.53 -7.85,6.89c-3.68,3.34 -7.45,6.42 -11.4,9.42c-3.06,2.41 -6.02,4.92 -8.98,7.45c-4.29,3.65 -8.61,7.22 -13.08,10.64c-7.94,6.09 -15.76,12.33 -23.54,18.61c-9.13,7.31 -18.49,14.29 -27.88,21.25c-0.81,0.6 -1.62,1.2 -2.46,1.82c-20.74,15.38 -41.7,30.35 -63.21,44.63c-2.28,1.52 -4.55,3.04 -6.81,4.56c-10.72,7.2 -21.56,14.17 -32.52,20.99c-0.97,0.6 -1.94,1.21 -2.94,1.83c-15.49,9.62 -31.1,19.02 -46.82,28.26c-3.1,1.83 -6.19,3.66 -9.29,5.5c-18.84,11.14 -38.06,21.62 -57.7,31.29c-4.48,2.23 -8.91,4.53 -13.34,6.84c-24.76,12.91 -49.61,25.45 -75.19,36.65c-3.89,1.71 -7.78,3.43 -11.66,5.16c-16.05,7.12 -32.19,13.87 -48.58,20.14c-3.55,1.36 -7.1,2.73 -10.65,4.1c-25.39,9.78 -51,18.49 -77.11,26.13c-3.77,1.12 -7.53,2.26 -11.29,3.4c-1.22,0.37 -2.44,0.74 -3.69,1.12c-2.3,0.7 -4.59,1.4 -6.88,2.11c-5.99,1.8 -11.61,3 -17.86,3.47c3.31,-2.49 5.92,-4.01 9.64,-5.68c1.12,-0.51 2.24,-1.02 3.4,-1.54c1.2,-0.55 2.41,-1.09 3.65,-1.65c18.48,-8.48 36.38,-17.81 54.02,-27.91c19.96,-11.36 40.46,-21.78 60.87,-32.31c8.67,-4.49 17.25,-9.13 25.81,-13.84c6.3,-3.46 12.64,-6.86 18.99,-10.26c8.13,-4.37 16.23,-8.79 24.26,-13.35c4.66,-2.64 9.34,-5.22 14.02,-7.82c17.99,-9.96 35.83,-20.15 53.59,-30.51c1.23,-0.72 2.47,-1.44 3.72,-2.17c4.98,-2.92 9.93,-5.83 14.7,-9.09c4.04,-2.75 8.25,-5.04 12.56,-7.34c4.49,-2.48 8.78,-5.25 13.08,-8.03c1.93,-1.23 3.85,-2.47 5.77,-3.7c0.98,-0.63 1.95,-1.25 2.96,-1.9c3.87,-2.49 7.76,-4.95 11.64,-7.42c12.92,-8.21 25.82,-16.43 38.54,-24.95c3.73,-2.5 7.47,-4.98 11.22,-7.47c19.22,-12.82 38.26,-25.99 56.7,-39.92c2.75,-2.05 5.51,-4.07 8.3,-6.08c5.07,-3.67 10.03,-7.47 14.98,-11.29c3.27,-2.53 6.55,-5.04 9.84,-7.55c13.32,-10.15 26.6,-20.36 39.3,-31.28c0.81,-0.64 1.61,-1.28 2.44,-1.94c0.66,0 1.32,0 2,0c0,-0.66 0,-1.32 0,-2c0.89,-0.69 1.79,-1.38 2.71,-2.09c6.52,-5.07 12.85,-10.21 18.93,-15.8c2.39,-2.13 4.84,-4.13 7.36,-6.11c6.25,-4.93 12.08,-10.29 17.91,-15.7c1,-0.92 2,-1.85 3.03,-2.8c0.89,-0.84 1.8,-1.68 2.71,-2.53c2.78,-2.46 5.6,-4.78 8.5,-7.09c6.26,-5.09 11.89,-10.7 17.54,-16.44c1,-1.01 2,-2.02 3.03,-3.06c2.43,-2.45 4.86,-4.92 7.28,-7.38c0.66,0 1.32,0 2,0c0,-0.66 0,-1.32 0,-2c1.16,-1 2.33,-2 3.53,-3.04c4.16,-3.64 8.1,-7.45 12.01,-11.36c0.68,-0.68 1.36,-1.37 2.06,-2.07c1.43,-1.43 2.86,-2.86 4.29,-4.29c2.17,-2.17 4.34,-4.34 6.51,-6.5c1.4,-1.4 2.8,-2.8 4.2,-4.2c0.64,-0.64 1.28,-1.28 1.93,-1.93c3.8,-3.82 7.39,-7.75 10.9,-11.82c1.88,-2.15 3.86,-4.17 5.91,-6.16c0.75,-0.73 1.5,-1.47 2.27,-2.23c0.77,-0.75 1.54,-1.5 2.33,-2.27c5.47,-5.42 10.72,-10.78 15.36,-16.93c1.85,-2.4 3.84,-4.6 5.89,-6.82c7.69,-8.43 14.69,-17.47 21.81,-26.38c0.66,0 1.32,0 2,0c0.66,-1.32 1.32,-2.64 2,-4c1.01,-1.4 2.05,-2.77 3.13,-4.12c0.62,-0.8 1.25,-1.6 1.9,-2.42c1.25,-1.56 2.51,-3.12 3.79,-4.67c4.85,-5.94 9.29,-12.12 13.68,-18.4c2.96,-4.24 5.99,-8.41 9.13,-12.51c8.89,-11.77 16.65,-24.33 24.37,-36.88c0.73,-1.18 1.46,-2.36 2.21,-3.57c13.55,-22.22 24.87,-44.98 33.79,-69.43c0.48,-1.29 0.95,-2.58 1.44,-3.9c7.1,-20.13 10.24,-41.03 11.88,-62.24c0.37,-11.12 -1.83,-22.07 -4.32,-32.86c-2.56,-10 -6.64,-18.95 -11.61,-27.98c-4.6,-7.74 -9.89,-14.62 -16.08,-21.14c-7.7,-7.44 -16.56,-13.37 -25.75,-18.82c-24.45,-13.47 -50.42,-23.71 -77.49,-30.59c-44.34,-10.86 -88.72,-17.66 -134.07,-22.47c-1.54,-0.18 -3.09,-0.36 -4.66,-0.55c-6.75,-0.66 -13.52,-0.66 -20.3,-0.73c-1.42,-0.02 -2.84,-0.04 -4.3,-0.06c-4.52,-0.06 -9.03,-0.11 -13.55,-0.16c-5.95,-0.07 -11.89,-0.14 -17.83,-0.22c-1.35,-0.01 -2.69,-0.03 -4.08,-0.04c-8.13,-0.1 -16.18,-0.51 -24.28,-1.24c0.99,-0.66 1.99,-1.33 3,-2c5.41,-0.85 10.89,-1.16 16.35,-1.58c0.83,-0.07 1.67,-0.13 2.53,-0.2c20.51,-1.57 41.02,-1.78 61.59,-1.89c4.9,-0.03 9.8,-0.08 14.7,-0.12c60.5,-0.53 120.81,-0.24 179.83,14.79" fill="#f52d1c" fill-rule="evenodd" id="svg_37" stroke="#000000"/>
  </g>
  <g fill="none" font-family="HarmonyOS Sans SC" font-size="14" font-style="normal" font-weight="400" id="svg_38" stroke="#000000" stroke-linecap="square" stroke-linejoin="bevel" stroke-opacity="0" transform="translate(0.8 0) translate(0.8 0) translate(0.8 0) matrix(1 0 0 1 -387 -305) matrix(2.83465 0 0 2.83465 0 0)"/>
  <g fill="none" fill-opacity="0.8" font-family="HarmonyOS Sans SC" font-size="14" font-style="normal" font-weight="400" id="svg_39" stroke="#000000" stroke-linecap="square" stroke-linejoin="bevel" stroke-opacity="0" transform="translate(0.8 0) translate(0.8 0) translate(0.8 0) matrix(1 0 0 1 -387 -305) matrix(0.158147 0 0 0.151493 367.211 327.477)">
   <path d="m1994.19,784.69c0.99,0 1.97,0 2.99,0c30.54,0.11 60.86,2.38 90.48,10.29c7.52,2.12 14.95,4.49 22.34,7.02c1.33,0.45 2.67,0.91 4.04,1.38c10.7,3.88 20.67,9.47 30.2,15.67c6.56,4.62 12.91,9.7 18.32,15.64c1.17,1.42 2.31,2.86 3.44,4.31c0.85,1.06 1.71,2.11 2.59,3.2c5.06,6.53 9.32,13.07 12.85,20.55c3.46,8.36 6.03,16.7 7.28,25.68c1.14,10.41 1,20.85 -0.42,31.22c-1.96,12.43 -5.38,24.4 -9.3,36.35c-0.3,0.94 -0.6,1.88 -0.91,2.84c-2.31,7.11 -4.95,14.02 -7.84,20.91c-0.44,1.04 -0.87,2.09 -1.33,3.16c-3.62,8.56 -7.61,16.86 -11.92,25.09c-0.67,1.34 -1.35,2.67 -2.04,4.05c-5.89,11.52 -12.75,22.23 -19.96,32.95c-0.48,0.72 -0.95,1.43 -1.45,2.17c-6.62,9.92 -13.7,19.43 -21.01,28.84c-2.32,3 -4.62,6.03 -6.91,9.05c-3.18,4.13 -6.45,8.11 -9.93,11.99c-1.93,2.22 -3.75,4.51 -5.57,6.83c-3.45,4.34 -7.1,8.45 -10.84,12.54c-2.39,2.69 -4.66,5.46 -6.91,8.27c-3.57,4.41 -7.34,8.34 -11.38,12.31c-0.97,1.13 -1.94,2.26 -2.93,3.42c-5.22,5.99 -10.89,11.54 -16.5,17.15c-1.21,1.2 -2.41,2.41 -3.62,3.61c-2.51,2.51 -5.02,5.03 -7.54,7.54c-3.2,3.2 -6.4,6.4 -9.6,9.61c-2.48,2.48 -4.97,4.96 -7.45,7.45c-1.75,1.75 -3.5,3.5 -5.25,5.25c-5.55,5.53 -11.14,10.89 -17.11,15.97c-1.84,1.66 -3.67,3.33 -5.5,5c-4.45,4.06 -8.95,8.05 -13.5,12c-1.14,0.99 -2.27,1.98 -3.44,3c-6.45,5.62 -12.92,11.19 -19.57,16.57c-3.03,2.46 -6.04,4.95 -9.05,7.43c-11.73,9.7 -23.53,19.27 -35.75,28.36c-5.12,3.81 -10.16,7.71 -15.19,11.64c-18.65,14.57 -37.83,28.37 -57.2,41.95c-7.55,5.29 -15.02,10.67 -22.42,16.18c-6.64,4.92 -13.37,9.61 -20.28,14.14c-4.07,2.71 -8.07,5.5 -12.07,8.31c-12.24,8.6 -24.72,16.74 -37.36,24.73c-3.39,2.14 -6.75,4.32 -10.11,6.5c-8.1,5.21 -16.32,10.2 -24.56,15.19c-0.77,0.47 -1.54,0.94 -2.33,1.42c-18.21,11.04 -36.61,21.79 -55.29,32.02c-0.82,0.44 -1.63,0.89 -2.47,1.35c-6.4,3.48 -12.9,6.73 -19.41,9.97c-3.98,1.98 -7.95,3.98 -11.92,5.99c-21.88,11.07 -43.82,21.82 -66.24,31.76c-2.91,1.3 -5.8,2.61 -8.69,3.95c-37.73,17.4 -76.97,31.13 -116.66,43.31c-6.24,1.93 -12.46,3.92 -18.68,5.92c-1.06,0.34 -2.11,0.68 -3.2,1.03c-2.37,0.76 -4.74,1.52 -7.11,2.28c-0.33,-0.66 -0.66,-1.32 -1,-2c1.12,-0.58 2.23,-1.17 3.38,-1.77c8.88,-4.64 17.71,-9.35 26.5,-14.17c12.81,-7.02 25.69,-13.92 38.81,-20.37c3.46,-1.71 6.77,-3.53 10.06,-5.56c4.06,-2.5 8.22,-4.65 12.5,-6.75c6.68,-3.3 13.23,-6.79 19.75,-10.38c6.2,-3.41 12.4,-6.75 18.75,-9.87c11.59,-5.72 22.9,-11.96 34.25,-18.13c0.9,-0.49 1.81,-0.98 2.74,-1.48c11.9,-6.45 23.62,-13.19 35.3,-20.04c5.55,-3.25 11.12,-6.43 16.71,-9.6c22.16,-12.63 43.63,-26.27 65.02,-40.15c5.45,-3.53 10.95,-6.98 16.46,-10.41c4.85,-3.04 9.55,-6.24 14.23,-9.54c4.19,-2.94 8.46,-5.76 12.73,-8.59c0.92,-0.61 1.85,-1.23 2.78,-1.86c3.97,-2.64 7.94,-5.27 11.92,-7.9c15.91,-10.53 31.5,-21.54 47.07,-32.57c2.76,-1.96 5.53,-3.9 8.3,-5.84c8.32,-5.83 16.51,-11.8 24.61,-17.93c5.22,-3.93 10.53,-7.74 15.84,-11.55c0.7,-0.51 1.41,-1.01 2.13,-1.53c0.69,-0.49 1.37,-0.98 2.08,-1.49c2.19,-1.6 4.34,-3.25 6.49,-4.9c1.18,-0.87 2.37,-1.73 3.59,-2.62c0.66,0 1.32,0 2,0c0,-0.66 0,-1.32 0,-2c0.63,-0.45 1.26,-0.9 1.91,-1.36c16.42,-11.81 31.96,-24.78 47.58,-37.6c2.5,-2.04 5.04,-4.04 7.57,-6.04c4.31,-3.43 8.38,-7.08 12.45,-10.79c2.37,-2.11 4.8,-4.07 7.3,-6.02c5.29,-4.16 10.13,-8.73 15.04,-13.32c2.61,-2.38 5.24,-4.59 8.03,-6.74c12.42,-9.71 23.48,-21.33 34.61,-32.45c1.33,-1.33 2.65,-2.65 3.98,-3.97c2.74,-2.74 5.49,-5.48 8.23,-8.22c3.49,-3.49 6.98,-6.97 10.48,-10.45c2.72,-2.72 5.45,-5.44 8.17,-8.16c1.28,-1.28 2.57,-2.57 3.86,-3.85c6.69,-6.65 13.14,-13.36 18.99,-20.77c2.44,-3.07 5.1,-5.91 7.8,-8.76c5.26,-5.64 10.2,-11.46 15,-17.5c0.68,-0.84 1.35,-1.69 2.05,-2.55c1.33,-1.67 2.66,-3.33 3.99,-5c1.29,-1.61 2.59,-3.23 3.89,-4.84c8.55,-10.63 16.74,-21.41 24.41,-32.7c2.39,-3.52 4.83,-7 7.29,-10.47c15.73,-22.74 29.27,-47.97 39.03,-73.85c3.51,-10 6.52,-19.99 7.34,-30.59c0.24,-5.08 0.34,-10.16 0.38,-15.25c0.01,-1.26 0.02,-2.51 0.04,-3.8c-0.04,-7.23 -0.67,-13.95 -2.47,-20.96c-1.43,-4.52 -3.35,-8.6 -5.64,-12.74c-0.44,-0.82 -0.89,-1.64 -1.34,-2.48c-2.35,-4.22 -4.77,-8.2 -7.91,-11.89c-1.32,-1.33 -2.67,-2.62 -4.06,-3.88c-0.76,-0.71 -1.53,-1.42 -2.31,-2.14c-8.91,-7.76 -18.98,-14.06 -29.56,-19.28c-25.59,-11.98 -53.55,-20.04 -81.32,-25.17c-7.58,-1.31 -15.18,-2.42 -22.81,-3.41c-0.85,-0.12 -1.7,-0.24 -2.57,-0.36c-19.03,-2.64 -37.87,-3.18 -57.05,-3.33c-2.97,-0.03 -5.93,-0.07 -8.9,-0.1c-7.16,-0.08 -14.32,-0.15 -21.48,-0.21c0.66,-0.66 1.32,-1.32 2,-2c15.89,-5.36 33.43,-6.27 50,-8c0.83,-0.09 1.67,-0.18 2.53,-0.27c13.91,-1.47 27.67,-2.1 41.66,-2.04" fill="#f52d1c" fill-rule="evenodd" id="svg_40" stroke="#000000"/>
  </g>
  <g fill="none" font-family="HarmonyOS Sans SC" font-size="14" font-style="normal" font-weight="400" id="svg_41" stroke="#000000" stroke-linecap="square" stroke-linejoin="bevel" stroke-opacity="0" transform="translate(0.8 0) translate(0.8 0) translate(0.8 0) matrix(1 0 0 1 -387 -305) matrix(2.83465 0 0 2.83465 0 0)"/>
  <g fill="none" fill-opacity="0.8" font-family="HarmonyOS Sans SC" font-size="14" font-style="normal" font-weight="400" id="svg_42" opacity="0.8" stroke="#000000" stroke-linecap="square" stroke-linejoin="bevel" stroke-opacity="0" transform="translate(0.8 0) translate(0.8 0) translate(0.8 0) matrix(1 0 0 1 -387 -305) matrix(0.158147 0 0 0.151493 367.211 327.477)">
   <path d="m610,841c0.33,0 0.66,0 1,0c0.09,0.8 0.18,1.61 0.27,2.42c1.19,11.98 3.39,23.74 6.61,35.27c0.98,2.13 2.02,4.23 3.12,6.31c0.47,0.93 0.95,1.87 1.44,2.83c2.24,4.06 4.83,7.79 7.87,11.3c2.71,2.56 5.31,4.21 8.6,6.04c6.73,3.28 13.54,6.49 20.84,8.24c8.05,1.46 16.15,2.53 24.25,3.59c0,0.33 0,0.66 0,1c-1.1,0.09 -2.2,0.17 -3.34,0.26c-11.02,1.02 -21.19,2.95 -31.66,6.74c-4.17,1.75 -8.1,3.71 -12,6c-0.75,0.44 -1.49,0.88 -2.27,1.33c-1.62,1.03 -3.53,2.58 -5.73,4.67c-4.29,5.47 -7.38,11.51 -10.25,17.81c-3.15,7.73 -5.02,15.38 -6.06,23.66c-0.65,5.5 -1.19,11.01 -1.69,16.53c-0.66,-0.99 -1.32,-1.98 -2,-3c-0.27,-2.56 -0.46,-5.12 -0.62,-7.69c-1.04,-10.13 -3.78,-19.34 -7.23,-28.9c-1.61,-4.19 -3.37,-8.12 -5.71,-11.97c-1.11,-1.51 -2.25,-3 -3.44,-4.44c-1.01,-1.24 -2.03,-2.49 -3.06,-3.75c-3.1,-2.86 -6.48,-4.87 -10.19,-6.87c-8.55,-4.03 -17.47,-6.62 -26.75,-8.38c-5.98,-0.92 -11.97,-1.52 -18,-2c0,-0.33 0,-0.66 0,-1c1.32,-0.16 2.64,-0.32 4,-0.48c11.67,-1.48 22.9,-3.42 34,-7.52c3.87,-1.74 7.44,-3.7 11,-6c0.73,-0.45 1.45,-0.9 2.2,-1.36c2.86,-1.94 5.35,-4.13 7.64,-6.71c3.52,-4.66 6.06,-9.56 8.35,-14.93c4.74,-12.53 7.03,-25.76 8.81,-39" fill="#7b2fe0" fill-rule="evenodd" id="svg_43" stroke="#000000"/>
  </g>
  <g fill="none" font-family="HarmonyOS Sans SC" font-size="14" font-style="normal" font-weight="400" id="svg_44" stroke="#000000" stroke-linecap="square" stroke-linejoin="bevel" stroke-opacity="0" transform="translate(0.8 0) translate(0.8 0) translate(0.8 0) matrix(1 0 0 1 -387 -305) matrix(2.83465 0 0 2.83465 0 0)"/>
  <g fill="none" font-family="HarmonyOS Sans SC" font-size="14" font-style="normal" font-weight="400" id="svg_45" stroke="#000000" stroke-linecap="square" stroke-linejoin="bevel" stroke-opacity="0" transform="translate(0.8 0) translate(0.8 0) translate(0.8 0) matrix(1 0 0 1 -387 -305) matrix(0.158147 0 0 0.151493 367.211 327.477)">
   <path d="m229,966c3.04,-0.38 6,-0.44 9.06,-0.43c0.97,0.14 1.95,0.28 2.94,0.43c1.79,0.89 3.46,1.89 5,3c0.99,0.99 1.98,1.98 3,3c0.67,2 1.08,3.9 1.24,5.71c0.07,3.13 0.06,6.16 -0.24,9.29c-0.56,1.18 -1.11,2.35 -1.69,3.56c-1.54,1.63 -3.04,3.04 -4.5,4.25c-1.87,0.79 -4.25,1.5 -7.12,2.13c-1.55,0.02 -3.1,0.04 -4.69,0.06c-2.87,-1 -5.54,-2.33 -8,-4c-0.82,-1.03 -1.65,-2.06 -2.5,-3.12c-1,-2.59 -1.62,-4.7 -1.87,-6.35c-0.09,-1.73 0.04,-4.24 0.37,-7.53c1.13,-2.25 2.46,-4.25 4,-6c0.66,-0.78 1.32,-1.57 2,-2.37c0.99,-0.54 1.98,-1.08 3,-1.63" fill="#a3a5ab" fill-rule="evenodd" id="svg_46" stroke="#000000"/>
  </g>
  <g fill="none" font-family="HarmonyOS Sans SC" font-size="14" font-style="normal" font-weight="400" id="svg_47" stroke="#000000" stroke-linecap="square" stroke-linejoin="bevel" stroke-opacity="0" transform="translate(0.8 0) translate(0.8 0) translate(0.8 0) matrix(1 0 0 1 -387 -305) matrix(2.83465 0 0 2.83465 0 0)"/>
  <g fill="none" fill-opacity="0.9" font-family="HarmonyOS Sans SC" font-size="14" font-style="normal" font-weight="400" id="svg_48" stroke="#000000" stroke-linecap="square" stroke-linejoin="bevel" stroke-opacity="0" transform="translate(0.8 0) translate(0.8 0) translate(0.8 0) matrix(1 0 0 1 -387 -305) matrix(0.158147 0 0 0.151493 367.211 327.477)">
   <path d="m819,1029c0.66,0.99 1.33,1.99 2,3c0.36,2.34 0.64,4.7 0.88,7.06c2.26,19.46 7.65,38.57 14.75,56.82c5.95,14.8 13.73,29.17 23.09,42.1c0.75,1 1.51,1.99 2.28,3.02c0.89,1.18 1.77,2.36 2.68,3.58c4.8,6.25 9.71,12.08 15.4,17.53c1.28,1.26 2.77,2.95 4.48,5.08c3.12,3.6 6.56,6.05 10.44,8.81c0,1.32 0,2.64 0,4c-18.36,9.56 -31.4,16.25 -39.12,20.08c-3.78,1.87 -7.56,3.76 -11.34,5.65c-1.39,0.7 -2.79,1.4 -4.24,2.12c-1.41,0.71 -2.84,1.42 -4.3,2.15c-2.67,1.33 -5.33,2.67 -8,4c-1.32,0.66 -2.65,1.33 -4,2c-4,2 -8,4 -12,6c-1.31,0.66 -2.63,1.32 -3.98,1.99c-2.73,1.36 -5.45,2.72 -8.18,4.08c-7.85,3.91 -15.65,7.89 -23.4,11.99c-14.34,7.53 -24.15,12.18 -29.44,13.94c-2.21,0.25 -4.87,0.25 -8,0c-6.38,-1.59 -12.17,-4.03 -17.97,-7.1c-8.44,-5.02 -15.81,-10.72 -22.85,-17.56c-8.28,-8.7 -14.83,-18.33 -20.79,-28.74c-6.46,-12.05 -11.27,-25.31 -14.39,-38.6c-0.9,-4.54 -1.22,-8.93 -1.31,-13.56c-0.04,-1.28 -0.08,-2.56 -0.12,-3.88c0.15,-1.18 0.28,-2.35 0.43,-3.56c0.52,-0.87 1.04,-1.75 1.57,-2.65c2.99,-2.89 6.15,-5.11 9.62,-7.41c1.44,-0.97 2.89,-1.95 4.33,-2.92c0.75,-0.5 1.49,-1 2.25,-1.51c3.55,-2.41 7.05,-4.9 10.54,-7.38c6.06,-4.3 12.17,-8.52 18.32,-12.69c6.92,-4.71 13.7,-9.57 20.42,-14.56c5.48,-4 11.04,-7.87 16.61,-11.75c4.89,-3.41 9.75,-6.84 14.59,-10.32c6.23,-4.47 12.54,-8.82 18.87,-13.15c4.58,-3.14 9.14,-6.29 13.7,-9.46c2.24,-1.55 4.49,-3.1 6.73,-4.65c1.16,-0.8 2.32,-1.6 3.51,-2.42c1.04,-0.72 2.09,-1.44 3.16,-2.18c2.29,-1.61 4.54,-3.27 6.78,-4.95c0.66,0 1.32,0 2,0c0,-0.66 0,-1.32 0,-2c1.32,-0.66 2.64,-1.32 4,-2" fill="#3099f3" fill-rule="evenodd" id="svg_49" stroke="#000000"/>
  </g>
  <g fill="none" font-family="HarmonyOS Sans SC" font-size="14" font-style="normal" font-weight="400" id="svg_50" stroke="#000000" stroke-linecap="square" stroke-linejoin="bevel" stroke-opacity="0" transform="translate(0.8 0) translate(0.8 0) translate(0.8 0) matrix(1 0 0 1 -387 -305) matrix(2.83465 0 0 2.83465 0 0)"/>
  <g fill="none" fill-opacity="0.8" font-family="HarmonyOS Sans SC" font-size="14" font-style="normal" font-weight="400" id="svg_51" stroke="#000000" stroke-linecap="square" stroke-linejoin="bevel" stroke-opacity="0" transform="translate(0.8 0) translate(0.8 0) translate(0.8 0) matrix(1 0 0 1 -387 -305) matrix(0.158147 0 0 0.151493 367.211 327.477)">
   <path d="m2007,1032c0,0.99 0,1.98 0,3c-1.26,2.11 -2.61,4.16 -4,6.19c-0.74,1.08 -1.48,2.17 -2.25,3.29c-0.58,0.83 -1.16,1.66 -1.75,2.52c-0.66,0 -1.32,0 -2,0c-0.66,1.32 -1.32,2.64 -2,4c-4.43,6.65 -9.38,12.69 -14.8,18.55c-2.09,2.33 -4.03,4.72 -5.95,7.2c-3.39,4.32 -7.05,8.31 -10.81,12.31c-4.14,4.41 -8.01,8.82 -11.63,13.66c-3.18,4.01 -6.72,7.71 -10.21,11.46c-2.95,3.2 -5.79,6.48 -8.6,9.82c-0.66,0 -1.32,0 -2,0c-0.33,0.99 -0.66,1.98 -1,3c-0.66,0 -1.32,0 -2,0c-0.66,1.32 -1.32,2.64 -2,4c-1.16,1.33 -2.37,2.61 -3.62,3.85c-0.74,0.74 -1.48,1.48 -2.25,2.24c-0.8,0.79 -1.6,1.58 -2.42,2.39c-0.82,0.82 -1.64,1.64 -2.48,2.48c-2.61,2.6 -5.23,5.19 -7.85,7.79c-1.78,1.76 -3.55,3.53 -5.33,5.29c-4.34,4.33 -8.69,8.65 -13.05,12.96c-0.66,0 -1.32,0 -2,0c-0.66,1.32 -1.32,2.64 -2,4c-1.62,1.79 -3.29,3.46 -5,5c-0.99,0.33 -1.98,0.66 -3,1c0,0.66 0,1.32 0,2c-1.03,0.89 -2.06,1.77 -3.12,2.69c-3.99,3.47 -7.84,7.07 -11.69,10.69c-5.12,4.77 -10.35,9.27 -15.81,13.64c-1.77,1.43 -3.73,3.26 -5.88,5.48c-3.7,3.7 -7.61,6.91 -11.68,10.18c-2.68,2.2 -5.26,4.48 -7.82,6.82c-5.17,4.7 -10.56,9.11 -16,13.5c-1.3,1.06 -2.6,2.12 -3.9,3.18c-10.48,8.53 -20.98,16.99 -31.71,25.2c-3.34,2.58 -6.65,5.19 -9.95,7.81c-12.83,10.09 -25.96,19.8 -39.22,29.32c-4.07,2.93 -8.1,5.89 -12.09,8.93c-15.37,11.57 -31.43,22.17 -47.46,32.79c-2.31,1.53 -4.62,3.07 -6.93,4.62c-13.12,8.79 -26.38,17.36 -39.8,25.7c-2.58,1.6 -5.16,3.22 -7.73,4.84c-40.19,25.35 -82.08,48.65 -125.21,68.61c-1.17,0.56 -2.34,1.13 -3.54,1.71c-12.56,6.04 -25.52,11.13 -38.46,16.29c-1.05,0.42 -2.1,0.84 -3.18,1.28c-16.52,6.61 -33.3,12.32 -50.2,17.86c-8.59,2.82 -17.11,5.82 -25.62,8.86c0,-0.99 0,-1.98 0,-3c1.29,-0.71 2.59,-1.42 3.92,-2.15c4.86,-2.7 9.63,-5.54 14.39,-8.41c0.87,-0.52 1.73,-1.04 2.62,-1.58c4.32,-2.6 8.63,-5.2 12.94,-7.82c12.15,-7.36 24.49,-14.35 36.91,-21.25c3.2,-1.78 6.4,-3.57 9.6,-5.37c12.61,-7.09 25.28,-14.08 38,-20.99c18.2,-9.91 36.32,-19.97 54.36,-30.16c2.49,-1.4 4.97,-2.8 7.46,-4.2c29.79,-16.77 59.36,-33.86 88.12,-52.35c2.66,-1.71 5.32,-3.39 7.99,-5.08c25.34,-15.98 50.11,-32.81 74.55,-50.13c2.12,-1.5 4.24,-2.99 6.36,-4.48c8.88,-6.25 17.7,-12.57 26.49,-18.93c7.22,-5.22 14.48,-10.39 21.74,-15.55c7.29,-5.2 14.54,-10.45 21.76,-15.76c2.53,-1.87 5.07,-3.72 7.61,-5.58c8.16,-5.95 16.2,-12.03 24.18,-18.21c2.23,-1.71 4.46,-3.42 6.69,-5.12c5.49,-4.23 10.92,-8.52 16.31,-12.88c1.24,-1 2.48,-2 3.75,-3.04c7.2,-5.82 14.35,-11.68 21.45,-17.63c2.79,-2.32 5.6,-4.61 8.43,-6.89c5.28,-4.31 10.33,-8.85 15.37,-13.44c2.63,-2.39 5.28,-4.71 8,-7c1.32,-0.66 2.64,-1.32 4,-2c0,-0.66 0,-1.32 0,-2c1.09,-0.93 2.2,-1.87 3.31,-2.81c3.5,-3.05 6.76,-6.25 10,-9.56c3.49,-3.53 7,-6.8 10.88,-9.88c7.67,-6.14 14.74,-12.93 21.81,-19.75c0.76,-0.73 1.52,-1.46 2.3,-2.21c8.74,-8.45 16.88,-16.89 24.18,-26.61c3.35,-4.23 7.15,-7.85 11.02,-11.59c3.06,-3.17 5.39,-6.57 7.81,-10.23c2.31,-3.22 5.02,-5.87 7.89,-8.57c1.43,-1.36 3.02,-3.29 4.8,-5.79" fill="#f52d1c" fill-rule="evenodd" id="svg_52" stroke="#000000"/>
  </g>
  <g fill="none" font-family="HarmonyOS Sans SC" font-size="14" font-style="normal" font-weight="400" id="svg_53" stroke="#000000" stroke-linecap="square" stroke-linejoin="bevel" stroke-opacity="0" transform="translate(0.8 0) translate(0.8 0) translate(0.8 0) matrix(1 0 0 1 -387 -305) matrix(2.83465 0 0 2.83465 0 0)"/>
  <g fill="none" fill-opacity="0.8" font-family="HarmonyOS Sans SC" font-size="14" font-style="normal" font-weight="400" id="svg_54" stroke="#000000" stroke-linecap="square" stroke-linejoin="bevel" stroke-opacity="0" transform="translate(0.8 0) translate(0.8 0) translate(0.8 0) matrix(1 0 0 1 -387 -305) matrix(0.158147 0 0 0.151493 367.211 327.477)">
   <path d="m1886,1073c0,0.99 0,1.98 0,3c-4.27,4.29 -8.53,8.58 -12.81,12.86c-1.45,1.45 -2.89,2.91 -4.34,4.37c-2.09,2.1 -4.19,4.2 -6.29,6.31c-0.63,0.64 -1.27,1.28 -1.93,1.94c-4.38,4.38 -8.94,8.47 -13.63,12.52c-1.84,1.66 -3.67,3.33 -5.5,5c-3.12,2.85 -6.25,5.67 -9.44,8.44c-3.35,2.91 -6.61,5.91 -9.87,8.94c-4.83,4.44 -9.79,8.65 -14.91,12.75c-1.65,1.31 -3.41,2.94 -5.28,4.87c-0.66,0 -1.32,0 -2,0c0,0.66 0,1.32 0,2c-0.64,0.52 -1.29,1.04 -1.95,1.58c-5.19,4.23 -10.34,8.51 -15.42,12.86c-5.28,4.48 -10.68,8.72 -16.19,12.9c-3.81,2.95 -7.53,5.98 -11.25,9.04c-7.89,6.45 -15.99,12.57 -24.19,18.62c-1.58,1.17 -3.16,2.34 -4.74,3.51c-19.81,14.66 -39.84,29.12 -60.47,42.62c-2.39,1.6 -4.73,3.24 -7.08,4.9c-7.3,5.12 -14.76,10.01 -22.21,14.91c-0.77,0.5 -1.54,1.01 -2.33,1.53c-12.87,8.46 -25.88,16.65 -39.05,24.63c-4.36,2.66 -8.71,5.35 -13.05,8.04c-11.67,7.21 -23.41,14.28 -35.25,21.21c-3.02,1.77 -6.02,3.54 -9.03,5.32c-9.33,5.51 -18.62,10.92 -28.38,15.63c-8.7,4.33 -17.11,9.25 -25.55,14.06c-7.61,4.33 -15.29,8.39 -23.15,12.25c-9.5,4.75 -18.79,9.93 -28.12,15c-2.18,1.17 -4.38,2.29 -6.59,3.39c-0.99,-0.33 -1.98,-0.66 -3,-1c11.72,-8.15 23.92,-15.29 36.28,-22.42c5.95,-3.45 11.84,-7.01 17.72,-10.58c0.89,-0.54 1.77,-1.07 2.69,-1.63c3.02,-1.83 6.04,-3.66 9.06,-5.49c0.95,-0.58 1.9,-1.16 2.87,-1.75c8.95,-5.44 17.78,-11.07 26.54,-16.81c7.96,-5.21 15.98,-10.29 24.11,-15.22c8.65,-5.25 17.19,-10.67 25.73,-16.1c1.25,-0.79 2.5,-1.59 3.78,-2.41c9.65,-6.17 19.18,-12.54 28.69,-18.92c7.46,-4.98 14.95,-9.91 22.47,-14.79c16.61,-10.82 33.18,-21.69 49.31,-33.23c3.44,-2.43 6.92,-4.77 10.43,-7.1c3.94,-2.63 7.82,-5.34 11.7,-8.05c0.85,-0.6 1.71,-1.2 2.59,-1.82c6.94,-4.87 13.78,-9.87 20.59,-14.92c3.78,-2.8 7.57,-5.59 11.44,-8.26c11.54,-7.99 22.75,-16.49 33.84,-25.08c4.7,-3.6 9.48,-7.07 14.26,-10.56c9.66,-7.08 19.26,-14.21 28.48,-21.86c2.17,-1.8 4.37,-3.53 6.61,-5.25c10.54,-8.15 20.78,-16.68 30.92,-25.33c2.5,-2.09 5.04,-4.08 7.64,-6.04c4.1,-3.13 7.64,-6.68 11.24,-10.36c2.2,-2.22 4.44,-4.23 7.01,-6.02c0.66,0 1.32,0 2,0c0,-0.66 0,-1.32 0,-2c0.92,-0.7 1.84,-1.4 2.77,-2.12c1.19,-0.91 2.38,-1.82 3.61,-2.75c1.18,-0.91 2.37,-1.82 3.58,-2.75c1.97,-1.48 3.65,-2.94 5.04,-4.38" fill="#f52d1c" fill-rule="evenodd" id="svg_55" stroke="#000000"/>
  </g>
  <g fill="none" font-family="HarmonyOS Sans SC" font-size="14" font-style="normal" font-weight="400" id="svg_56" stroke="#000000" stroke-linecap="square" stroke-linejoin="bevel" stroke-opacity="0" transform="translate(0.8 0) translate(0.8 0) translate(0.8 0) matrix(1 0 0 1 -387 -305) matrix(2.83465 0 0 2.83465 0 0)"/>
  <g fill="none" fill-opacity="0.9" font-family="HarmonyOS Sans SC" font-size="14" font-style="normal" font-weight="400" id="svg_57" stroke="#000000" stroke-linecap="square" stroke-linejoin="bevel" stroke-opacity="0" transform="translate(0.8 0) translate(0.8 0) translate(0.8 0) matrix(1 0 0 1 -387 -305) matrix(0.158147 0 0 0.151493 367.211 327.477)">
   <path d="m625,1165c0.99,0 1.98,0 3,0c0.08,0.84 0.15,1.68 0.23,2.54c1.35,12.37 4.31,24.3 8.7,35.93c5.34,13.26 12.08,25.54 20.38,37.16c7.66,10.17 15.91,19.16 25.82,27.17c5.06,3.88 10.16,7.34 15.87,10.2c-0.99,0.99 -1.98,1.98 -3,3c-2.83,1.63 -5.66,3.18 -8.56,4.69c-0.84,0.44 -1.68,0.88 -2.55,1.33c-7.16,3.69 -14.43,7.05 -21.83,10.22c-2.42,1.05 -4.81,2.15 -7.15,3.37c-2.99,1.49 -5.66,2.56 -8.91,3.39c-6.77,0.62 -13.23,0.6 -20,0c-3.09,-0.65 -5.69,-1.46 -8.57,-2.75c-0.8,-0.41 -1.61,-0.83 -2.43,-1.25c-0.9,-0.42 -1.79,-0.85 -2.72,-1.29c-6.12,-3.08 -11.49,-6.85 -16.71,-11.29c-5.47,-5.15 -9.79,-11 -13.76,-17.36c-0.96,-1.67 -1.89,-3.36 -2.81,-5.06c-0.44,-0.82 -0.88,-1.63 -1.34,-2.48c-3.38,-6.81 -5.32,-13.84 -6.93,-21.26c-0.85,-4.96 -1.29,-9.62 -1.11,-14.65c0.75,-7.07 2.18,-13.85 4.38,-20.61c1.22,-2.65 2.48,-4.79 4.25,-7.09c4,-4.37 8.21,-8.21 13.14,-11.51c1.76,-1.1 3.53,-2.19 5.31,-3.27c5.12,-3.3 10.01,-6.92 14.93,-10.51c6.01,-4.39 10.13,-7.26 12.37,-8.62" fill="#3099f3" fill-rule="evenodd" id="svg_58" stroke="#000000"/>
  </g>
  <g fill="none" font-family="HarmonyOS Sans SC" font-size="14" font-style="normal" font-weight="400" id="svg_59" stroke="#000000" stroke-linecap="square" stroke-linejoin="bevel" stroke-opacity="0" transform="translate(0.8 0) translate(0.8 0) translate(0.8 0) matrix(1 0 0 1 -387 -305) matrix(2.83465 0 0 2.83465 0 0)"/>
  <g fill="none" fill-opacity="0.8" font-family="HarmonyOS Sans SC" font-size="14" font-style="normal" font-weight="400" id="svg_60" opacity="0.8" stroke="#000000" stroke-linecap="square" stroke-linejoin="bevel" stroke-opacity="0" transform="translate(0.8 0) translate(0.8 0) translate(0.8 0) matrix(1 0 0 1 -387 -305) matrix(0.158147 0 0 0.151493 367.211 327.477)">
   <path d="m1524.31,1167.78c0.89,0.07 1.77,0.15 2.69,0.22c2.29,0.83 4.29,1.83 6,3c1.5,1.21 2.83,2.54 4,4c0.83,1.83 1.5,3.83 2,6c0.21,2.63 0.21,5.29 0,8c-0.75,2.46 -1.75,4.79 -3,7c-1.83,1.88 -3.83,3.54 -6,5c-2.25,0.92 -4.58,1.58 -7,2c-2.71,-0.08 -5.37,-0.42 -8,-1c-2.17,-1.17 -4.17,-2.5 -6,-4c-1.54,-1.71 -2.87,-3.37 -4,-5c-0.33,-0.99 -0.66,-1.98 -1,-3c-0.17,-2.83 -0.17,-5.83 0,-9c0.79,-2.5 1.79,-4.83 3,-7c1.63,-1.92 3.29,-3.58 5,-5c4.26,-1.07 7.94,-1.27 12.31,-1.22" fill="#7b2fe0" fill-rule="evenodd" id="svg_61" stroke="#000000"/>
  </g>
  <g fill="none" font-family="HarmonyOS Sans SC" font-size="14" font-style="normal" font-weight="400" id="svg_62" stroke="#000000" stroke-linecap="square" stroke-linejoin="bevel" stroke-opacity="0" transform="translate(0.8 0) translate(0.8 0) translate(0.8 0) matrix(1 0 0 1 -387 -305) matrix(2.83465 0 0 2.83465 0 0)"/>
  <g fill="none" fill-opacity="0.9" font-family="HarmonyOS Sans SC" font-size="14" font-style="normal" font-weight="400" id="svg_63" stroke="#000000" stroke-linecap="square" stroke-linejoin="bevel" stroke-opacity="0" transform="translate(0.8 0) translate(0.8 0) translate(0.8 0) matrix(1 0 0 1 -387 -305) matrix(0.158147 0 0 0.151493 367.211 327.477)">
   <path d="m1161,1186c4.67,0.81 8.89,2.26 13.27,4.1c7.17,3.65 13.77,7.73 20.06,12.76c4.18,3.85 7.27,8.3 10.42,13.02c2.91,4.7 5.62,9.29 7.48,14.51c2.29,7.75 3.94,15.38 4.21,23.49c-0.17,6.68 -1.41,12.88 -3.2,19.31c-1.86,5.7 -3.96,10.77 -7.24,15.81c-4.72,6.19 -9.7,12.42 -15.75,17.38c-7.89,4.87 -15.8,9.22 -24.68,12.02c-6.01,1.51 -11.99,2.81 -18.19,3.04c-7.85,-0.35 -15.65,-1.99 -23.14,-4.28c-2.49,-0.93 -4.85,-1.99 -7.24,-3.16c-0.93,-0.45 -1.86,-0.89 -2.82,-1.36c-4.59,-2.42 -8.58,-5.13 -12.55,-8.49c-4.49,-4.27 -8.52,-8.57 -12.09,-13.65c-3.41,-5.68 -5.98,-11.3 -7.98,-17.62c-1.55,-5.59 -2.72,-10.75 -2.85,-16.58c-0.06,-7.28 0.12,-14.13 1.85,-21.24c1.88,-6.08 4.41,-11.61 7.59,-17.13c3.74,-5.93 7.83,-11.14 12.91,-15.99c5.79,-4.91 12.13,-8.62 18.94,-11.94c3.21,-1.46 6.23,-2.51 9.65,-3.37c10.36,-1.5 20.93,-1.65 31.35,-0.63" fill="#676f7b" fill-rule="evenodd" id="svg_64" stroke="#000000"/>
  </g>
  <g fill="none" font-family="HarmonyOS Sans SC" font-size="14" font-style="normal" font-weight="400" id="svg_65" stroke="#000000" stroke-linecap="square" stroke-linejoin="bevel" stroke-opacity="0" transform="translate(0.8 0) translate(0.8 0) translate(0.8 0) matrix(1 0 0 1 -387 -305) matrix(2.83465 0 0 2.83465 0 0)"/>
  <path d="m61.68,206.24c0,0.15 0,0.3 0,0.45c-0.31,0.28 -0.62,0.56 -0.93,0.83c-0.17,0.15 -0.35,0.31 -0.52,0.47c-0.15,0.12 -0.29,0.24 -0.45,0.37c-0.1,0 -0.21,0 -0.32,0c-0.05,0.15 -0.1,0.3 -0.16,0.45c-0.28,0.25 -0.57,0.49 -0.87,0.73c-0.65,0.53 -1.26,1.1 -1.88,1.65c-0.14,0.11 -0.28,0.23 -0.42,0.34c-0.16,0.05 -0.31,0.1 -0.47,0.15c0,0.1 0,0.2 0,0.3c-0.17,0.14 -0.35,0.27 -0.52,0.42c-0.75,0.63 -1.4,1.32 -2.07,2.03c-0.33,0.34 -0.66,0.68 -1.01,1c-0.45,0.43 -0.86,0.87 -1.27,1.33c-1.12,1.21 -2.28,2.39 -3.48,3.52c-0.67,0.64 -1.27,1.31 -1.86,2.02c-0.44,0.51 -0.92,0.99 -1.39,1.48c-0.83,0.85 -1.6,1.73 -2.34,2.66c-0.66,0.82 -1.34,1.61 -2.02,2.4c-0.49,0.59 -0.96,1.18 -1.43,1.79c-0.15,0.19 -0.29,0.37 -0.45,0.56c-3.67,4.64 -7.06,9.63 -9.36,15.04c-0.93,2.33 -1.57,4.79 -1.9,7.27c-0.11,2.1 -0.2,4.29 0.26,6.36c0.51,1.8 1.19,3.53 2.15,5.16c0.8,1.28 1.74,2.4 2.81,3.48c0.15,0.15 0.29,0.29 0.44,0.45c1.26,1.24 2.57,2.32 4.11,3.24c3.59,2 7.5,3.18 11.5,4.23c0.42,0.11 0.84,0.21 1.26,0.31c0.42,0.1 0.83,0.21 1.24,0.32c8.06,2.09 16.68,2.81 25.01,2.84c0.72,0 1.44,0 2.16,0c0.25,0 0.49,0 0.75,0c3.56,0 7.09,-0.06 10.64,-0.33c0.49,-0.03 0.98,-0.07 1.47,-0.11c1.46,-0.11 2.92,-0.22 4.38,-0.35c0.17,-0.02 0.33,-0.03 0.51,-0.04c2.91,-0.26 5.81,-0.59 8.71,-0.99c0.65,-0.09 1.3,-0.17 1.95,-0.26c2.13,-0.28 4.24,-0.6 6.33,-1.05c0.68,-0.14 1.26,-0.23 1.95,-0.23c-0.21,0.15 -0.42,0.3 -0.63,0.45c-1.6,0.59 -3.26,1.03 -4.91,1.46c-0.64,0.17 -1.28,0.34 -1.92,0.52c-1.84,0.52 -3.7,0.95 -5.58,1.34c-0.15,0.03 -0.31,0.06 -0.46,0.1c-6.16,1.29 -12.36,2.29 -18.62,2.91c-0.17,0.02 -0.34,0.03 -0.51,0.05c-3.66,0.34 -7.33,0.3 -11,0.3c-0.68,0 -1.36,0 -2.04,0c-4.05,0 -8.05,-0.04 -12.07,-0.51c-0.15,-0.02 -0.29,-0.03 -0.44,-0.05c-5.53,-0.64 -11,-1.58 -16.3,-3.24c-0.14,-0.04 -0.27,-0.09 -0.42,-0.13c-2.69,-0.86 -5.37,-2 -7.78,-3.46c-0.33,-0.21 -0.65,-0.43 -0.98,-0.65c-0.16,-0.11 -0.32,-0.22 -0.49,-0.33c-1.18,-0.82 -2.25,-1.73 -3.31,-2.7c-0.14,-0.13 -0.28,-0.26 -0.43,-0.39c-1.4,-1.31 -2.51,-2.7 -3.53,-4.3c-0.9,-1.46 -1.6,-2.95 -2.08,-4.58c-0.16,-0.59 -0.31,-1.19 -0.45,-1.78c-0.04,-0.16 -0.08,-0.32 -0.12,-0.48c-0.4,-1.98 -0.29,-4.12 -0.15,-6.12c0.3,-2.53 0.94,-5.08 1.85,-7.48c1.83,-4.46 4.33,-8.56 7.27,-12.42c0.13,-0.17 0.26,-0.35 0.4,-0.52c0.59,-0.77 1.2,-1.5 1.86,-2.21c0.29,-0.31 0.55,-0.64 0.81,-0.97c0.73,-0.89 1.55,-1.7 2.36,-2.51c0.54,-0.54 1.04,-1.08 1.52,-1.66c0.26,-0.2 0.53,-0.41 0.79,-0.61c0.27,-0.25 0.53,-0.5 0.79,-0.76c0.12,-0.12 0.25,-0.24 0.37,-0.36c0.13,-0.12 0.25,-0.25 0.38,-0.37c0.29,-0.28 0.58,-0.56 0.87,-0.84c0.15,-0.14 0.29,-0.28 0.44,-0.42c0.81,-0.78 1.64,-1.53 2.52,-2.25c0.26,-0.24 0.51,-0.49 0.76,-0.74c0.66,-0.64 1.35,-1.21 2.09,-1.77c0.54,-0.42 1.07,-0.86 1.6,-1.29c0.71,-0.59 1.43,-1.15 2.17,-1.69c0.38,-0.29 0.73,-0.6 1.09,-0.91c0.74,-0.65 1.53,-1.23 2.33,-1.81c0.6,-0.45 1.2,-0.9 1.79,-1.37c1.01,-0.79 2.03,-1.55 3.07,-2.3c0.7,-0.51 1.37,-1.04 2.03,-1.59c0.29,-0.21 0.59,-0.42 0.89,-0.62c0.56,-0.38 1.11,-0.78 1.64,-1.19" fill="#f52d1c" fill-opacity="0.8" fill-rule="evenodd" id="svg_67" stroke="#000000" stroke-opacity="0"/>
  <g fill="none" font-family="HarmonyOS Sans SC" font-size="14" font-style="normal" font-weight="400" id="svg_68" stroke="#000000" stroke-linecap="square" stroke-linejoin="bevel" stroke-opacity="0" transform="translate(0.8 0) translate(0.8 0) translate(0.8 0) matrix(1 0 0 1 -387 -305) matrix(2.83465 0 0 2.83465 0 0)"/>
  <path d="m63.74,215.18c0.1,0.05 0.21,0.1 0.32,0.15c-0.13,0.13 -0.27,0.25 -0.4,0.38c-0.17,0.17 -0.35,0.33 -0.53,0.5c-0.17,0.16 -0.35,0.33 -0.52,0.5c-0.3,0.28 -0.56,0.58 -0.76,0.9c-0.1,0 -0.21,0 -0.32,0c-0.05,0.15 -0.1,0.3 -0.16,0.45c-0.1,0 -0.21,0 -0.32,0c-0.1,0.2 -0.21,0.4 -0.32,0.61c-0.31,0.31 -0.63,0.61 -0.95,0.91c-0.1,0 -0.21,0 -0.32,0c0,0.1 0,0.2 0,0.3c-0.26,0.25 -0.53,0.5 -0.79,0.76c-0.1,0 -0.21,0 -0.32,0c-0.1,0.2 -0.21,0.4 -0.32,0.61c-0.29,0.29 -0.58,0.57 -0.88,0.85c-0.29,0.27 -0.58,0.54 -0.86,0.81c-0.05,0.1 -0.1,0.2 -0.16,0.3c-0.1,0 -0.21,0 -0.32,0c-0.1,0.2 -0.21,0.4 -0.32,0.61c-0.3,0.35 -0.61,0.7 -0.93,1.04c-0.19,0.2 -0.37,0.41 -0.56,0.61c-0.09,0.1 -0.19,0.21 -0.29,0.31c-3.39,3.7 -6.56,7.55 -9.14,11.82c-0.08,0.13 -0.15,0.26 -0.24,0.39c-1.53,2.52 -2.72,5.11 -3.55,7.92c-0.35,1.36 -0.54,2.72 -0.64,4.12c-0.01,0.15 -0.02,0.31 -0.03,0.47c-0.05,1.47 0.2,2.95 0.51,4.38c0.32,1.25 0.81,2.37 1.44,3.5c0.72,1.16 1.51,2.2 2.51,3.16c0.71,0.6 1.45,1.14 2.21,1.67c0.14,0.1 0.28,0.21 0.43,0.31c1.82,1.26 3.99,2.1 6.07,2.87c4.81,1.71 9.94,2.67 15.01,3.33c0.15,0.02 0.31,0.04 0.47,0.06c5.2,0.67 10.38,0.93 15.62,0.91c0.46,0 0.93,0 1.39,0c4.74,-0.01 9.43,-0.16 14.15,-0.67c0.48,-0.05 0.96,-0.1 1.43,-0.14c1.32,-0.13 2.63,-0.3 3.94,-0.46c0.26,-0.03 0.52,-0.07 0.79,-0.1c3.99,-0.5 7.92,-1.16 11.85,-2c0.2,-0.04 0.39,-0.08 0.59,-0.13c0.17,-0.04 0.35,-0.07 0.53,-0.11c0.32,-0.05 0.74,-0.08 1.27,-0.08c-0.1,0.1 -0.21,0.2 -0.32,0.3c-0.55,0.19 -1.1,0.37 -1.66,0.54c-0.17,0.05 -0.35,0.11 -0.52,0.16c-1.95,0.58 -3.92,1.07 -5.89,1.56c-0.96,0.24 -1.9,0.5 -2.85,0.77c-4.3,1.21 -8.77,1.96 -13.18,2.64c-0.53,0.08 -1.05,0.17 -1.58,0.25c-9.12,1.46 -18.73,1.92 -27.95,1.15c-0.36,-0.03 -0.72,-0.07 -1.08,-0.1c-0.2,-0.02 -0.39,-0.04 -0.6,-0.05c-5.13,-0.48 -10.31,-1.5 -15.16,-3.24c-2.41,-0.9 -4.79,-2.01 -6.89,-3.46c-1.05,-0.77 -2.02,-1.61 -2.97,-2.49c-0.19,-0.17 -0.38,-0.33 -0.57,-0.5c-0.97,-1.01 -1.78,-2.1 -2.48,-3.3c-0.31,-0.6 -0.62,-1.2 -0.9,-1.8c-0.06,-0.13 -0.13,-0.26 -0.2,-0.39c-0.56,-1.22 -0.82,-2.54 -1.07,-3.85c-0.17,-1.16 -0.2,-2.3 -0.09,-3.47c0.31,-2.17 0.86,-4.27 1.69,-6.32c0.47,-1.06 0.99,-2.08 1.56,-3.09c0.11,-0.2 0.22,-0.39 0.33,-0.59c1.88,-3.29 4.2,-6.29 6.79,-9.1c0.55,-0.6 1.08,-1.18 1.58,-1.82c0.1,0 0.21,0 0.32,0c0.1,-0.2 0.21,-0.4 0.32,-0.61c0.21,-0.22 0.42,-0.42 0.64,-0.62c0.21,-0.19 0.42,-0.39 0.62,-0.59c0.05,-0.1 0.1,-0.2 0.16,-0.3c0.1,0 0.21,0 0.32,0c0.1,-0.2 0.21,-0.4 0.32,-0.61c0.37,-0.38 0.74,-0.75 1.13,-1.11c0.11,-0.1 0.22,-0.21 0.33,-0.31c0.52,-0.49 1.04,-0.97 1.59,-1.42c0.67,-0.56 1.29,-1.16 1.91,-1.76c0.44,-0.42 0.9,-0.8 1.37,-1.19c0.38,-0.32 0.73,-0.67 1.08,-1.01c0.67,-0.65 1.38,-1.23 2.13,-1.8c1.04,-0.81 2.03,-1.69 2.96,-2.61c0.1,0 0.21,0 0.32,0c0,-0.1 0,-0.2 0,-0.3c0.63,-0.45 1.25,-0.9 1.9,-1.36" fill="#f52d1c" fill-opacity="0.8" fill-rule="evenodd" id="svg_70" stroke="#000000" stroke-opacity="0"/>
  <g fill="none" font-family="HarmonyOS Sans SC" font-size="14" font-style="normal" font-weight="400" id="svg_71" stroke="#000000" stroke-linecap="square" stroke-linejoin="bevel" stroke-opacity="0" transform="translate(0.8 0) translate(0.8 0) translate(0.8 0) matrix(1 0 0 1 -387 -305) matrix(2.83465 0 0 2.83465 0 0)"/>
  <g fill="none" fill-opacity="0.8" font-family="HarmonyOS Sans SC" font-size="14" font-style="normal" font-weight="400" id="svg_72" stroke="#000000" stroke-linecap="square" stroke-linejoin="bevel" stroke-opacity="0" transform="translate(0.8 0) translate(0.8 0) translate(0.8 0) matrix(1 0 0 1 -387 -305) matrix(0.158147 0 0 0.151493 367.211 327.477)">
   <path d="m522,1338c0,0.99 0,1.98 0,3c-0.71,0.68 -1.42,1.37 -2.14,2.07c-3.25,3.18 -6.49,6.37 -9.73,9.56c-1.11,1.07 -2.22,2.15 -3.36,3.25c-7.58,7.49 -13.79,15.32 -19.77,24.12c-1.28,1.74 -2.57,3.47 -3.87,5.19c-14.79,20.29 -27.75,42.79 -36.84,66.21c-3.53,10.69 -5.5,21.66 -6.61,32.84c-0.18,4.36 0.24,8.33 1.01,12.63c1.45,6.4 3.22,12.49 6,18.44c3.35,6.21 7.53,11.53 12.31,16.69c4.6,4.73 9.56,8.51 15.13,12.06c16.28,9.6 33.8,15.62 51.91,20.81c28.12,7.67 57.92,12.83 86.96,15.13c1.27,0.1 2.53,0.2 3.84,0.31c56.07,4.2 113.48,3.58 169.16,-4.31c0.95,-0.13 1.89,-0.27 2.87,-0.4c24.68,-3.5 49.31,-7.27 73.82,-11.85c0.86,-0.16 1.72,-0.32 2.61,-0.49c7.29,-1.36 14.56,-2.75 21.79,-4.42c0.83,-0.19 1.66,-0.38 2.51,-0.57c2.28,-0.54 4.57,-1.08 6.85,-1.62c1.17,-0.22 2.34,-0.43 3.55,-0.65c0.99,0.33 1.98,0.66 3,1c-11.94,5.3 -24.18,8.69 -36.77,12.1c-4.09,1.14 -8.15,2.36 -12.22,3.58c-13.54,4.06 -27.2,7.3 -41.01,10.32c-1.14,0.25 -2.27,0.5 -3.44,0.76c-47.4,10.49 -95.07,17.58 -143.56,20.24c-1.14,0.06 -2.29,0.13 -3.46,0.2c-44.95,2.43 -90.84,-1.05 -134.94,-10.03c-23.02,-4.91 -45.52,-11.84 -66.73,-22.15c-8.19,-4.28 -15.24,-9.29 -22.12,-15.46c-7.62,-7.23 -12.76,-12.98 -15.43,-17.25c-1.53,-2.73 -2.94,-5.5 -4.32,-8.31c-0.72,-1.42 -1.44,-2.85 -2.19,-4.31c-2.02,-4.79 -3.27,-9.66 -4.27,-14.75c-1,-7.34 -1.01,-14.56 -0.54,-21.94c1.32,-10.34 4.18,-20.32 8,-30c2.47,-5.44 5.17,-10.73 8,-16c0.65,-1.22 1.3,-2.44 1.98,-3.7c4.4,-7.97 9.41,-15.15 15.02,-22.3c1.75,-2.29 3.5,-4.58 5.25,-6.87c4.63,-6.04 9.33,-11.78 14.75,-17.13c1.97,-2.09 3.93,-4.2 5.88,-6.31c0.98,-1.07 1.97,-2.14 2.99,-3.24c2.2,-2.43 4.38,-4.87 6.54,-7.35c10.1,-11.58 20.51,-22.55 32.59,-32.1c0.93,-0.73 1.85,-1.47 2.8,-2.22c2.06,-1.61 4.13,-3.2 6.2,-4.78" fill="#f52d1c" fill-rule="evenodd" id="svg_73" stroke="#000000"/>
  </g>
  <g fill="none" font-family="HarmonyOS Sans SC" font-size="14" font-style="normal" font-weight="400" id="svg_74" stroke="#000000" stroke-linecap="square" stroke-linejoin="bevel" stroke-opacity="0" transform="translate(0.8 0) translate(0.8 0) translate(0.8 0) matrix(1 0 0 1 -387 -305) matrix(2.83465 0 0 2.83465 0 0)"/>
  <g fill="none" font-family="HarmonyOS Sans SC" font-size="14" font-style="normal" font-weight="400" id="svg_75" stroke="#000000" stroke-linecap="square" stroke-linejoin="bevel" stroke-opacity="0" transform="translate(0.8 0) translate(0.8 0) translate(0.8 0) matrix(1 0 0 1 -387 -305) matrix(0.158147 0 0 0.151493 367.211 327.477)">
   <path d="m2125.42,1361.91c2.62,0.15 5.03,0.49 7.58,1.09c2.5,1.08 4.83,2.42 7,4c2.17,2.17 4.17,4.5 6,7c1.29,2.58 2.29,5.25 3,8c-0.04,3 -0.37,6 -1,9c-1.12,2.83 -2.46,5.5 -4,8c-1.96,1.92 -3.96,3.58 -6,5c-1.51,0.74 -3.18,1.4 -5,2c-4.72,0.54 -9.28,0.52 -14,0c-1.68,-0.61 -3.2,-1.32 -4.56,-2.12c-3.3,-2.76 -5.94,-5.39 -8.44,-8.88c-0.67,-2 -1.08,-3.95 -1.24,-5.86c-0.07,-3.41 -0.04,-6.73 0.24,-10.14c1.04,-2.96 2.38,-5.62 4,-8c3.25,-3.25 6.35,-5.62 10.31,-7.94c2.46,-0.71 4.5,-1.09 6.11,-1.15" fill="#a3a5ab" fill-rule="evenodd" id="svg_76" stroke="#000000"/>
  </g>
  <g fill="none" font-family="HarmonyOS Sans SC" font-size="14" font-style="normal" font-weight="400" id="svg_77" stroke="#000000" stroke-linecap="square" stroke-linejoin="bevel" stroke-opacity="0" transform="translate(0.8 0) translate(0.8 0) translate(0.8 0) matrix(1 0 0 1 -387 -305) matrix(2.83465 0 0 2.83465 0 0)"/>
  <g fill="none" fill-opacity="0.9" font-family="HarmonyOS Sans SC" font-size="14" font-style="normal" font-weight="400" id="svg_78" stroke="#000000" stroke-linecap="square" stroke-linejoin="bevel" stroke-opacity="0" transform="translate(0.8 0) translate(0.8 0) translate(0.8 0) matrix(1 0 0 1 -387 -305) matrix(0.158147 0 0 0.151493 367.211 327.477)">
   <path d="m1040.88,1367.87c2.02,0 4.04,0 6.05,0c5.47,-0.01 10.94,-0.01 16.41,0c5.77,0 11.55,0 17.32,-0.01c9.73,0 19.47,0 29.2,0.01c11.13,0.01 22.26,0 33.38,0c9.63,-0.01 19.27,-0.01 28.9,0c5.71,0 11.43,0 17.15,-0.01c13.54,0 27.08,0.03 40.62,0.12c3.19,0.02 6.37,0.03 9.56,0.04c5.29,0.03 10.58,0.07 15.87,0.14c1.98,0.02 3.96,0.04 5.94,0.04c2.72,0.01 5.44,0.05 8.16,0.1c1.54,0.01 3.08,0.03 4.66,0.04c1.29,0.22 2.59,0.44 3.9,0.66c0.99,0.77 1.98,1.55 2.99,2.33c0.66,0.88 1.33,1.76 2.01,2.67c0.47,2.25 0.74,4.73 0.81,7.44c0.05,1.57 0.09,3.15 0.14,4.77c0.02,1.93 0.03,3.86 0.05,5.79c0.02,1.2 0.04,2.4 0.06,3.63c0.06,3.98 0.1,7.95 0.13,11.93c0.01,1.29 0.02,2.58 0.04,3.89c0,5.45 -0.06,10.62 -1.24,15.95c-0.33,1.19 -0.65,2.38 -0.99,3.6c-1.56,0.66 -3.56,1.32 -6,2c-3.58,0.19 -7.09,0.27 -10.67,0.26c-1.08,0 -2.15,0.01 -3.26,0.01c-3.61,0.01 -7.21,0.01 -10.81,0c-2.59,0.01 -5.17,0.01 -7.76,0.02c-7.01,0.01 -14.03,0.01 -21.05,0.01c-5.86,0 -11.71,0.01 -17.57,0.01c-13.81,0.01 -27.61,0.01 -41.42,0.01c-14.26,-0.01 -28.52,0 -42.78,0.02c-12.23,0.02 -24.46,0.03 -36.7,0.02c-7.31,0 -14.62,0 -21.93,0.02c-6.87,0.01 -13.74,0.01 -20.61,0c-2.53,-0.01 -5.05,0 -7.58,0c-3.44,0.01 -6.87,0.01 -10.31,-0.01c-1.01,0.01 -2.01,0.02 -3.05,0.03c-2.5,-0.02 -5,-0.2 -7.5,-0.4c-1.02,-0.46 -2.04,-0.92 -3.1,-1.4c-0.62,-0.53 -1.25,-1.06 -1.9,-1.6c-0.33,-0.66 -0.66,-1.32 -1,-2c-0.1,-1.71 -0.13,-3.42 -0.13,-5.14c0,-1.07 -0.01,-2.15 -0.01,-3.24c0,-1.16 0.01,-2.33 0.01,-3.52c0,-1.19 0,-2.38 -0.01,-3.6c0,-2.52 0.01,-5.04 0.01,-7.56c0.01,-3.86 0,-7.72 -0.01,-11.58c0,-2.44 0.01,-4.88 0.01,-7.32c0,-1.16 -0.01,-2.32 -0.01,-3.52c0,-1.07 0.01,-2.15 0.01,-3.25c0,-0.95 0,-1.9 0,-2.87c0.04,-0.79 0.09,-1.59 0.13,-2.4c0.33,-0.99 0.66,-1.98 1,-3c0.99,-0.66 1.98,-1.32 3,-2c9.87,-1.54 19.92,-1.14 29.88,-1.13" fill="#676f7b" fill-rule="evenodd" id="svg_79" stroke="#000000"/>
  </g>
  <g fill="none" font-family="HarmonyOS Sans SC" font-size="14" font-style="normal" font-weight="400" id="svg_80" stroke="#000000" stroke-linecap="square" stroke-linejoin="bevel" stroke-opacity="0" transform="translate(0.8 0) translate(0.8 0) translate(0.8 0) matrix(1 0 0 1 -387 -305) matrix(2.83465 0 0 2.83465 0 0)"/>
  <g fill="none" fill-opacity="0.9" font-family="HarmonyOS Sans SC" font-size="14" font-style="normal" font-weight="400" id="svg_81" stroke="#000000" stroke-linecap="square" stroke-linejoin="bevel" stroke-opacity="0" transform="translate(0.8 0) translate(0.8 0) translate(0.8 0) matrix(1 0 0 1 -387 -305) matrix(0.158147 0 0 0.151493 367.211 327.477)">
   <path d="m1063.5,1469.94c2.38,0 4.77,0.01 7.15,0.01c5.78,0.01 11.57,0.03 17.35,0.05c0.66,0.66 1.32,1.32 2,2c-4.08,7.46 -8.39,14.76 -12.75,22.06c-5.17,8.7 -10.26,17.42 -15.18,26.26c-2.3,4.09 -4.68,8.14 -7.07,12.18c-3.28,5.55 -6.49,11.12 -9.62,16.75c-2.7,4.82 -5.46,9.56 -8.38,14.25c-2.79,4.48 -5.44,9.01 -8,13.63c-4.9,8.79 -10.05,17.43 -15.19,26.08c-4.06,6.82 -8.06,13.67 -11.97,20.57c-4.78,8.38 -9.7,16.68 -14.69,24.94c-6,9.93 -11.82,19.93 -17.5,30.05c-3.71,6.6 -7.56,13.11 -11.49,19.58c-2.41,4.07 -4.7,8.19 -6.97,12.34c-3.5,6.35 -7.12,12.61 -10.88,18.81c-4.59,7.59 -9.08,15.24 -13.5,22.94c-6.19,10.77 -12.45,21.51 -18.75,32.22c-3.92,6.68 -7.82,13.38 -11.68,20.09c-4.91,8.51 -9.97,16.93 -15.04,25.34c-3.8,6.32 -7.54,12.67 -11.17,19.1c-3.12,5.48 -6.3,10.92 -9.48,16.37c-0.61,1.05 -1.23,2.1 -1.86,3.18c-2.59,4.43 -5.19,8.86 -7.83,13.26c-19.47,0 -38.94,0 -59,0c6.02,-11.29 10.54,-19.54 13.56,-24.75c4.74,-8.23 9.39,-16.51 14,-24.81c0.64,-1.15 1.28,-2.31 1.93,-3.48c2.87,-5.17 5.72,-10.34 8.56,-15.53c5.03,-9.21 10.17,-18.33 15.56,-27.34c2.91,-4.97 5.66,-10.02 8.39,-15.09c6.15,-11.38 12.34,-22.68 19.07,-33.73c1.7,-2.88 3.22,-5.76 4.68,-8.77c4.38,-9.02 9.51,-17.64 14.46,-26.35c2.97,-5.23 5.91,-10.47 8.85,-15.71c0.59,-1.04 1.17,-2.08 1.77,-3.15c3.88,-6.94 7.7,-13.92 11.48,-20.91c4.07,-7.51 8.31,-14.86 12.75,-22.16c3.69,-6.12 7.01,-12.43 10.32,-18.77c0.43,-0.82 0.86,-1.65 1.31,-2.5c0.84,-1.62 1.69,-3.25 2.53,-4.87c2.57,-4.92 5.31,-9.68 8.19,-14.42c2.96,-4.96 5.73,-10.04 8.53,-15.1c1.32,-2.39 2.65,-4.78 3.97,-7.17c0.67,-1.22 1.35,-2.44 2.04,-3.69c3.31,-5.97 6.62,-11.93 9.93,-17.89c0.63,-1.14 1.26,-2.27 1.91,-3.45c5.77,-10.37 11.58,-20.72 17.43,-31.05c0.57,-1.01 1.15,-2.02 1.74,-3.06c1.11,-1.98 2.23,-3.95 3.35,-5.92c3.63,-6.41 7.18,-12.86 10.69,-19.33c1.07,-1.96 2.14,-3.92 3.21,-5.89c0.52,-0.95 1.05,-1.91 1.58,-2.9c2.41,-4.4 4.81,-8.81 7.21,-13.21c14.17,-1.19 28.29,-1.11 42.5,-1.06" fill="#676f7b" fill-rule="evenodd" id="svg_82" stroke="#000000"/>
  </g>
  <g fill="none" font-family="HarmonyOS Sans SC" font-size="14" font-style="normal" font-weight="400" id="svg_83" stroke="#000000" stroke-linecap="square" stroke-linejoin="bevel" stroke-opacity="0" transform="translate(0.8 0) translate(0.8 0) translate(0.8 0) matrix(1 0 0 1 -387 -305) matrix(2.83465 0 0 2.83465 0 0)"/>
  <g fill="none" fill-opacity="0.9" font-family="HarmonyOS Sans SC" font-size="14" font-style="normal" font-weight="400" id="svg_84" stroke="#000000" stroke-linecap="square" stroke-linejoin="bevel" stroke-opacity="0" transform="translate(0.8 0) translate(0.8 0) translate(0.8 0) matrix(1 0 0 1 -387 -305) matrix(0.158147 0 0 0.151493 367.211 327.477)">
   <path d="m1149.41,1469.81c2.61,0 5.23,-0.02 7.84,-0.03c1.69,-0.01 3.38,-0.01 5.06,-0.01c1.5,0 3.01,-0.01 4.55,-0.01c4.03,0.23 7.3,1.07 11.14,2.24c0.02,51.94 0.04,103.89 0.05,155.83c0,6.12 0,12.25 0,18.38c0.01,1.22 0.01,2.44 0.01,3.69c0,19.78 0.01,39.55 0.02,59.32c0.01,20.28 0.01,40.55 0.01,60.83c0.01,12.52 0.01,25.04 0.02,37.56c0,8.57 0,17.15 0,25.72c0,4.95 0,9.91 0.01,14.86c0,4.53 0,9.06 0,13.59c0,2.43 0,4.86 0.01,7.28c0,1.43 0,2.85 -0.01,4.32c0,1.24 0,2.49 0,3.76c-0.04,0.94 -0.08,1.9 -0.12,2.86c-0.33,0.66 -0.66,1.32 -1,2c-19.8,0 -39.6,0 -60,0c-0.13,-43.13 -0.26,-86.25 -0.38,-129.38c-0.02,-5.12 -0.03,-10.25 -0.05,-15.37c0,-1.02 0,-2.05 -0.01,-3.09c-0.04,-16.38 -0.09,-32.76 -0.14,-49.14c-0.05,-16.89 -0.1,-33.78 -0.15,-50.67c-0.03,-9.45 -0.06,-18.9 -0.08,-28.35c-0.07,-20.32 -0.12,-40.64 -0.17,-60.96c-0.01,-5.94 -0.03,-11.88 -0.05,-17.82c-0.01,-6.69 -0.03,-13.39 -0.04,-20.08c0,-2.39 -0.01,-4.79 -0.02,-7.18c-0.01,-3.23 -0.01,-6.46 -0.02,-9.68c0,-0.92 0,-1.85 -0.01,-2.79c0.01,-5.59 0.41,-10.96 1.12,-16.49c10.8,-0.89 21.57,-1.19 32.41,-1.19" fill="#676f7b" fill-rule="evenodd" id="svg_85" stroke="#000000"/>
  </g>
  <g fill="none" font-family="HarmonyOS Sans SC" font-size="14" font-style="normal" font-weight="400" id="svg_86" stroke="#000000" stroke-linecap="square" stroke-linejoin="bevel" stroke-opacity="0" transform="translate(0.8 0) translate(0.8 0) translate(0.8 0) matrix(1 0 0 1 -387 -305) matrix(2.83465 0 0 2.83465 0 0)"/>
  <g fill="none" fill-opacity="0.9" font-family="HarmonyOS Sans SC" font-size="14" font-style="normal" font-weight="400" id="svg_87" stroke="#000000" stroke-linecap="square" stroke-linejoin="bevel" stroke-opacity="0" transform="translate(0.8 0) translate(0.8 0) translate(0.8 0) matrix(1 0 0 1 -387 -305) matrix(0.158147 0 0 0.151493 367.211 327.477)">
   <path d="m1231.98,1469.9c1.19,0 2.37,0.01 3.58,0.01c3.73,0 7.46,0.01 11.19,0.03c2.55,0 5.09,0.01 7.64,0.01c6.2,0.01 12.41,0.03 18.61,0.05c2.13,2.06 3.9,3.84 5.44,6.38c0.44,0.88 0.88,1.76 1.34,2.67c0.5,1 1.01,1.99 1.53,3.02c0.54,1.07 1.07,2.14 1.63,3.24c4.31,8.46 8.73,16.82 13.44,25.07c0.53,0.93 1.06,1.87 1.6,2.82c1.1,1.92 2.2,3.85 3.3,5.78c3.09,5.44 6.12,10.92 9.16,16.4c4.83,8.71 9.68,17.42 14.56,26.12c5.52,9.84 11,19.69 16.46,29.56c3.97,7.15 7.99,14.27 12.04,21.38c5.62,9.87 10.99,19.86 16.3,29.9c3.08,5.8 6.25,11.49 9.67,17.1c3.03,5.07 5.86,10.26 8.72,15.44c0.65,1.18 1.31,2.36 1.98,3.58c4.37,7.89 8.72,15.79 13.06,23.69c2.62,4.78 5.28,9.54 7.96,14.29c4.3,7.62 8.52,15.27 12.75,22.94c0.7,1.26 1.4,2.53 2.12,3.84c0.69,1.25 1.37,2.5 2.08,3.78c6.12,11.1 12.26,22.19 18.52,33.21c5.67,9.99 11.22,20.04 16.67,30.16c3.99,7.39 8.05,14.74 12.15,22.08c3.37,6.06 6.66,12.17 9.96,18.27c3.92,7.18 7.98,14.27 12.17,21.29c1.17,1.98 2.28,3.98 3.39,5.99c0.33,1.32 0.66,2.64 1,4c-19.47,0 -38.94,0 -59,0c-2.31,-4.29 -4.62,-8.58 -7,-13c-2.04,-3.51 -4.1,-7.01 -6.19,-10.5c-4.4,-7.4 -8.74,-14.83 -13,-22.31c-4.32,-7.59 -8.7,-15.14 -13.14,-22.66c-3.69,-6.26 -7.34,-12.53 -11,-18.81c-3.32,-5.7 -6.65,-11.39 -9.99,-17.07c-8.41,-14.28 -14.32,-24.54 -17.74,-30.77c-4.68,-8.52 -9.64,-16.86 -14.62,-25.2c-5.72,-9.61 -11.27,-19.3 -16.8,-29.01c-4.08,-7.18 -8.25,-14.29 -12.54,-21.35c-2.9,-4.87 -5.65,-9.83 -8.41,-14.78c-3.04,-5.41 -6.18,-10.75 -9.32,-16.1c-5.2,-8.89 -10.31,-17.82 -15.36,-26.8c-3.87,-6.88 -7.83,-13.7 -11.83,-20.51c-4.78,-8.16 -9.46,-16.37 -14.06,-24.63c-5.1,-9.16 -10.31,-18.23 -15.61,-27.27c-4.5,-7.67 -8.92,-15.38 -13.33,-23.1c-5.43,-9.54 -10.89,-19.06 -16.37,-28.57c-0.63,-1.09 -1.26,-2.18 -1.91,-3.3c-2.11,-3.68 -4.27,-7.33 -6.47,-10.96c-0.43,-0.76 -0.86,-1.52 -1.31,-2.3c0,-0.66 0,-1.32 0,-2c8.35,-0.83 16.6,-1.14 24.98,-1.1" fill="#676f7b" fill-rule="evenodd" id="svg_88" stroke="#000000"/>
  </g>
  <g fill="none" font-family="HarmonyOS Sans SC" font-size="14" font-style="normal" font-weight="400" id="svg_89" stroke="#000000" stroke-linecap="square" stroke-linejoin="bevel" stroke-opacity="0" transform="translate(0.8 0) translate(0.8 0) translate(0.8 0) matrix(1 0 0 1 -387 -305) matrix(2.83465 0 0 2.83465 0 0)"/>
  <g fill="none" fill-opacity="0.8" font-family="HarmonyOS Sans SC" font-size="14" font-style="normal" font-weight="400" id="svg_90" opacity="0.8" stroke="#000000" stroke-linecap="square" stroke-linejoin="bevel" stroke-opacity="0" transform="translate(0.8 0) translate(0.8 0) translate(0.8 0) matrix(1 0 0 1 -387 -305) matrix(0.158147 0 0 0.151493 367.211 327.477)">
   <path d="m1788,1640c2.04,-0.21 4.38,-0.21 7,0c3.45,1.17 6.01,2.07 9,4c2,2.38 3.67,4.71 5,7c0.67,2 1.08,4.25 1.25,6.75c-0.17,2.83 -0.6,5.46 -1.31,7.88c-0.64,1.11 -1.29,2.23 -1.94,3.37c-2.29,2.25 -4.62,4.25 -7,6c-2.67,0.67 -5.42,1.1 -8.25,1.31c-1.57,-0.1 -3.14,-0.2 -4.75,-0.31c-2.87,-1.08 -5.54,-2.42 -8,-4c-1.62,-2.04 -2.96,-4.04 -4,-6c-0.33,-0.99 -0.66,-1.98 -1,-3c-0.21,-3.72 -0.01,-6.96 0.69,-10.62c0.43,-1.12 0.87,-2.24 1.31,-3.38c1.54,-1.83 3.21,-3.5 5,-5c2.29,-1.49 4.56,-2.78 7,-4" fill="#7b2fe0" fill-rule="evenodd" id="svg_91" stroke="#000000"/>
  </g>
  <g fill="none" font-family="HarmonyOS Sans SC" font-size="14" font-style="normal" font-weight="400" id="svg_92" stroke="#000000" stroke-linecap="square" stroke-linejoin="bevel" stroke-opacity="0" transform="translate(0.8 0) translate(0.8 0) translate(0.8 0) matrix(1 0 0 1 -387 -305) matrix(2.83465 0 0 2.83465 0 0)"/>
  <g fill="none" font-family="HarmonyOS Sans SC" font-size="14" font-style="normal" font-weight="400" id="svg_95" stroke="#000000" stroke-linecap="square" stroke-linejoin="bevel" stroke-opacity="0" transform="translate(0.8 0) translate(0.8 0) translate(0.8 0) matrix(1 0 0 1 -387 -305) matrix(2.83465 0 0 2.83465 0 0)"/>
  <g fill="none" font-family="HarmonyOS Sans SC" font-size="14" font-style="normal" font-weight="400" id="svg_98" stroke="#000000" stroke-linecap="square" stroke-linejoin="bevel" stroke-opacity="0" transform="translate(0.8 0) translate(0.8 0) translate(0.8 0) matrix(1 0 0 1 -387 -305) matrix(2.83465 0 0 2.83465 0 0)"/>
  <g fill="none" font-family="HarmonyOS Sans SC" font-size="14" font-style="normal" font-weight="400" id="svg_101" stroke="#000000" stroke-linecap="square" stroke-linejoin="bevel" stroke-opacity="0" transform="translate(0.8 0) translate(0.8 0) translate(0.8 0) matrix(1 0 0 1 -387 -305) matrix(2.83465 0 0 2.83465 0 0)"/>
  <g fill="none" font-family="HarmonyOS Sans SC" font-size="14" font-style="normal" font-weight="400" id="svg_104" stroke="#000000" stroke-linecap="square" stroke-linejoin="bevel" stroke-opacity="0" transform="translate(0.8 0) translate(0.8 0) translate(0.8 0) matrix(1 0 0 1 -387 -305) matrix(2.83465 0 0 2.83465 0 0)"/>
  <g fill="none" font-family="HarmonyOS Sans SC" font-size="14" font-style="normal" font-weight="400" id="svg_107" stroke="#000000" stroke-linecap="square" stroke-linejoin="bevel" stroke-opacity="0" transform="translate(0.8 0) translate(0.8 0) translate(0.8 0) matrix(1 0 0 1 -387 -305) matrix(2.83465 0 0 2.83465 0 0)"/>
  <g fill="none" font-family="HarmonyOS Sans SC" font-size="14" font-style="normal" font-weight="400" id="svg_110" stroke="#000000" stroke-linecap="square" stroke-linejoin="bevel" stroke-opacity="0" transform="translate(0.8 0) translate(0.8 0) translate(0.8 0) matrix(1 0 0 1 -387 -305) matrix(2.83465 0 0 2.83465 0 0)"/>
  <g fill="none" font-family="HarmonyOS Sans SC" font-size="14" font-style="normal" font-weight="400" id="svg_113" stroke="#000000" stroke-linecap="square" stroke-linejoin="bevel" stroke-opacity="0" transform="translate(0.8 0) translate(0.8 0) translate(0.8 0) matrix(1 0 0 1 -387 -305) matrix(2.83465 0 0 2.83465 0 0)"/>
  <g fill="none" font-family="HarmonyOS Sans SC" font-size="14" font-style="normal" font-weight="400" id="svg_116" stroke="#000000" stroke-linecap="square" stroke-linejoin="bevel" stroke-opacity="0" transform="translate(0.8 0) translate(0.8 0) translate(0.8 0) matrix(1 0 0 1 -387 -305) matrix(2.83465 0 0 2.83465 0 0)"/>
  <g fill="none" font-family="HarmonyOS Sans SC" font-size="14" font-style="normal" font-weight="400" id="svg_119" stroke="#000000" stroke-linecap="square" stroke-linejoin="bevel" stroke-opacity="0" transform="translate(0.8 0) translate(0.8 0) translate(0.8 0) matrix(1 0 0 1 -387 -305) matrix(2.83465 0 0 2.83465 0 0)"/>
  <g fill="none" font-family="HarmonyOS Sans SC" font-size="14" font-style="normal" font-weight="400" id="svg_122" stroke="#000000" stroke-linecap="square" stroke-linejoin="bevel" stroke-opacity="0" transform="translate(0.8 0) translate(0.8 0) translate(0.8 0) matrix(1 0 0 1 -387 -305) matrix(2.83465 0 0 2.83465 0 0)"/>
  <g fill="none" font-family="HarmonyOS Sans SC" font-size="14" font-style="normal" font-weight="400" id="svg_125" stroke="#000000" stroke-linecap="square" stroke-linejoin="bevel" stroke-opacity="0" transform="translate(0.8 0) translate(0.8 0) translate(0.8 0) matrix(1 0 0 1 -387 -305) matrix(2.83465 0 0 2.83465 0 0)"/>
  <g fill="none" font-family="HarmonyOS Sans SC" font-size="14" font-style="normal" font-weight="400" id="svg_128" stroke="#000000" stroke-linecap="square" stroke-linejoin="bevel" stroke-opacity="0" transform="translate(0.8 0) translate(0.8 0) translate(0.8 0) matrix(1 0 0 1 -387 -305) matrix(2.83465 0 0 2.83465 0 0)"/>
  <g fill="none" font-family="HarmonyOS Sans SC" font-size="14" font-style="normal" font-weight="400" id="svg_131" stroke="#000000" stroke-linecap="square" stroke-linejoin="bevel" stroke-opacity="0" transform="translate(0.8 0) translate(0.8 0) translate(0.8 0) matrix(1 0 0 1 -387 -305) matrix(2.83465 0 0 2.83465 0 0)"/>
 </g>
</svg>